  0
SECTION
  2
HEADER
  9
$ACADVER
  1
AC1014
  9
$HANDSEED
  5
FFFF
  9
$MEASUREMENT
 70
     1
  0
ENDSEC
  0
SECTION
  2
TABLES
  0
TABLE
  2
VPORT
  5
8
330
0
100
AcDbSymbolTable
 70
     4
  0
VPORT
  5
2E
330
8
100
AcDbSymbolTableRecord
100
AcDbViewportTableRecord
  2
*ACTIVE
 70
     0
 10
0.0
 20
0.0
 11
1.0
 21
1.0
 12
210.0
 22
148.5
 13
0.0
 23
0.0
 14
10.0
 24
10.0
 15
10.0
 25
10.0
 16
0.0
 26
0.0
 36
1.0
 17
0.0
 27
0.0
 37
0.0
 40
341.0
 41
1.24
 42
50.0
 43
0.0
 44
0.0
 50
0.0
 51
0.0
 71
     0
 72
   100
 73
     1
 74
     3
 75
     0
 76
     0
 77
     0
 78
     0
  0
ENDTAB
  0
TABLE
  2
LTYPE
  5
5
330
0
100
AcDbSymbolTable
 70
     1
  0
LTYPE
  5
14
330
5
100
AcDbSymbolTableRecord
100
AcDbLinetypeTableRecord
  2
BYBLOCK
 70
     0
  3

 72
    65
 73
     0
 40
0.0
  0
LTYPE
  5
15
330
5
100
AcDbSymbolTableRecord
100
AcDbLinetypeTableRecord
  2
BYLAYER
 70
     0
  3

 72
    65
 73
     0
 40
0.0
  0
LTYPE
  5
16
330
5
100
AcDbSymbolTableRecord
100
AcDbLinetypeTableRecord
  2
CONTINUOUS
 70
     0
  3
Solid line
 72
    65
 73
     0
 40
0.0
  0
ENDTAB
  0
TABLE
  2
LAYER
  5
2
100
AcDbSymbolTable
 70
4
  0
LAYER
  5
50
100
AcDbSymbolTableRecord
100
AcDbLayerTableRecord
  2
0
 70
0
  6
CONTINUOUS
  0
LAYER
  5
51
100
AcDbSymbolTableRecord
100
AcDbLayerTableRecord
  2
Layer_1
 70
0
  6
CONTINUOUS
  0
LAYER
  5
52
100
AcDbSymbolTableRecord
100
AcDbLayerTableRecord
  2
logo
 70
0
  6
CONTINUOUS
  0
LAYER
  5
53
100
AcDbSymbolTableRecord
100
AcDbLayerTableRecord
  2
Layer
 70
0
  6
CONTINUOUS
  0
ENDTAB
  0
TABLE
  2
STYLE
  5
3
330
0
100
AcDbSymbolTable
 70
     1
  0
STYLE
  5
11
330
3
100
AcDbSymbolTableRecord
100
AcDbTextStyleTableRecord
  2
STANDARD
 70
     0
 40
0.0
 41
1.0
 50
0.0
 71
     0
 42
2.5
  3
txt
  4

  0
ENDTAB
  0
TABLE
  2
VIEW
  5
6
330
0
100
AcDbSymbolTable
 70
     0
  0
ENDTAB
  0
TABLE
  2
UCS
  5
7
330
0
100
AcDbSymbolTable
 70
     0
  0
ENDTAB
  0
TABLE
  2
APPID
  5
9
330
0
100
AcDbSymbolTable
 70
     2
  0
APPID
  5
12
330
9
100
AcDbSymbolTableRecord
100
AcDbRegAppTableRecord
  2
ACAD
 70
     0
  0
ENDTAB
  0
TABLE
  2
DIMSTYLE
  5
A
330
0
100
AcDbSymbolTable
 70
     1
  0
DIMSTYLE
105
27
330
A
100
AcDbSymbolTableRecord
100
AcDbDimStyleTableRecord
  2
ISO-25
 70
     0
  3

  4

  5

  6

  7

 40
1.0
 41
2.5
 42
0.625
 43
3.75
 44
1.25
 45
0.0
 46
0.0
 47
0.0
 48
0.0
140
2.5
141
2.5
142
0.0
143
0.03937007874016
144
1.0
145
0.0
146
1.0
147
0.625
 71
     0
 72
     0
 73
     0
 74
     0
 75
     0
 76
     0
 77
     1
 78
     8
170
     0
171
     3
172
     1
173
     0
174
     0
175
     0
176
     0
177
     0
178
     0
270
     2
271
     2
272
     2
273
     2
274
     3
340
11
275
     0
280
     0
281
     0
282
     0
283
     0
284
     8
285
     0
286
     0
287
     3
288
     0
  0
ENDTAB
  0
TABLE
  2
BLOCK_RECORD
  5
1
330
0
100
AcDbSymbolTable
 70
     1
  0
BLOCK_RECORD
  5
1F
330
1
100
AcDbSymbolTableRecord
100
AcDbBlockTableRecord
  2
*MODEL_SPACE
  0
BLOCK_RECORD
  5
1B
330
1
100
AcDbSymbolTableRecord
100
AcDbBlockTableRecord
  2
*PAPER_SPACE
  0
ENDTAB
  0
ENDSEC
  0
SECTION
  2
BLOCKS
  0
BLOCK
  5
20
330
1F
100
AcDbEntity
  8
0
100
AcDbBlockBegin
  2
*MODEL_SPACE
 70
     0
 10
0.0
 20
0.0
 30
0.0
  3
*MODEL_SPACE
  1

  0
ENDBLK
  5
21
330
1F
100
AcDbEntity
  8
0
100
AcDbBlockEnd
  0
BLOCK
  5
1C
330
1B
100
AcDbEntity
 67
     1
  8
0
100
AcDbBlockBegin
  2
*PAPER_SPACE
  1

  0
ENDBLK
  5
1D
330
1B
100
AcDbEntity
 67
     1
  8
0
100
AcDbBlockEnd
  0
ENDSEC
  0
SECTION
  2
ENTITIES
  0
LWPOLYLINE
  5
100
100
AcDbEntity
  8
Layer_1
 62
7
100
AcDbPolyline
 90
5
 70
1
 10
10.141111
 20
130.141116
 30
0.0
 10
80.940891
 20
130.141116
 30
0.0
 10
80.940891
 20
10.141119
 30
0.0
 10
10.141111
 20
10.141119
 30
0.0
 10
10.141111
 20
130.141116
 30
0.0
  0
LWPOLYLINE
  5
101
100
AcDbEntity
  8
Layer_1
 62
7
100
AcDbPolyline
 90
5
 70
1
 10
90.141112
 20
130.141116
 30
0.0
 10
160.941108
 20
130.141116
 30
0.0
 10
160.941108
 20
10.141119
 30
0.0
 10
90.141112
 20
10.141119
 30
0.0
 10
90.141112
 20
130.141116
 30
0.0
  0
LWPOLYLINE
  5
102
100
AcDbEntity
  8
Layer_1
 62
7
100
AcDbPolyline
 90
5
 70
1
 10
10.141111
 20
260.141110
 30
0.0
 10
80.781110
 20
260.141110
 30
0.0
 10
80.781110
 20
140.141113
 30
0.0
 10
10.141111
 20
140.141113
 30
0.0
 10
10.141111
 20
260.141110
 30
0.0
  0
SPLINE
  5
103
100
AcDbEntity
  8
logo
 62
7
100
AcDbSpline
 70
8
 71
3
 72
8
 73
4
 74
0
 40
0
 40
0
 40
0
 40
0
 40
1
 40
1
 40
1
 40
1
 10
53.586154
 20
191.497735
 30
0.0
 10
53.514140
 20
191.577310
 30
0.0
 10
53.094805
 20
191.874123
 30
0.0
 10
51.700334
 20
192.832553
 30
0.0
  0
SPLINE
  5
104
100
AcDbEntity
  8
logo
 62
7
100
AcDbSpline
 70
8
 71
3
 72
8
 73
4
 74
0
 40
0
 40
0
 40
0
 40
0
 40
1
 40
1
 40
1
 40
1
 10
51.700334
 20
192.832553
 30
0.0
 10
50.625592
 20
193.571230
 30
0.0
 10
50.536904
 20
193.634560
 30
0.0
 10
49.820249
 20
194.175103
 30
0.0
  0
SPLINE
  5
105
100
AcDbEntity
  8
logo
 62
7
100
AcDbSpline
 70
8
 71
3
 72
8
 73
4
 74
0
 40
0
 40
0
 40
0
 40
0
 40
1
 40
1
 40
1
 40
1
 10
49.820249
 20
194.175103
 30
0.0
 10
49.530717
 20
194.393487
 30
0.0
 10
48.735440
 20
194.942409
 30
0.0
 10
48.052970
 20
195.394933
 30
0.0
  0
SPLINE
  5
106
100
AcDbEntity
  8
logo
 62
7
100
AcDbSpline
 70
8
 71
3
 72
8
 73
4
 74
0
 40
0
 40
0
 40
0
 40
0
 40
1
 40
1
 40
1
 40
1
 10
48.052970
 20
195.394933
 30
0.0
 10
46.214436
 20
196.613997
 30
0.0
 10
45.430643
 20
197.181250
 30
0.0
 10
43.897982
 20
198.401991
 30
0.0
  0
SPLINE
  5
107
100
AcDbEntity
  8
logo
 62
7
100
AcDbSpline
 70
8
 71
3
 72
8
 73
4
 74
0
 40
0
 40
0
 40
0
 40
0
 40
1
 40
1
 40
1
 40
1
 10
43.897982
 20
198.401991
 30
0.0
 10
43.453344
 20
198.756143
 30
0.0
 10
42.937436
 20
199.163740
 30
0.0
 10
42.751522
 20
199.307769
 30
0.0
  0
SPLINE
  5
108
100
AcDbEntity
  8
logo
 62
7
100
AcDbSpline
 70
8
 71
3
 72
8
 73
4
 74
0
 40
0
 40
0
 40
0
 40
0
 40
1
 40
1
 40
1
 40
1
 10
42.751522
 20
199.307769
 30
0.0
 10
42.140310
 20
199.781270
 30
0.0
 10
41.593976
 20
200.359637
 30
0.0
 10
41.332020
 20
200.810489
 30
0.0
  0
SPLINE
  5
109
100
AcDbEntity
  8
logo
 62
7
100
AcDbSpline
 70
8
 71
3
 72
8
 73
4
 74
0
 40
0
 40
0
 40
0
 40
0
 40
1
 40
1
 40
1
 40
1
 10
41.332020
 20
200.810489
 30
0.0
 10
41.015982
 20
201.354430
 30
0.0
 10
40.939621
 20
201.668990
 30
0.0
 10
41.003418
 20
202.164151
 30
0.0
  0
SPLINE
  5
10a
100
AcDbEntity
  8
logo
 62
7
100
AcDbSpline
 70
8
 71
3
 72
8
 73
4
 74
0
 40
0
 40
0
 40
0
 40
0
 40
1
 40
1
 40
1
 40
1
 10
41.003418
 20
202.164151
 30
0.0
 10
41.099805
 20
202.912303
 30
0.0
 10
41.363818
 20
203.344430
 30
0.0
 10
41.982551
 20
203.766776
 30
0.0
  0
SPLINE
  5
10b
100
AcDbEntity
  8
logo
 62
7
100
AcDbSpline
 70
8
 71
3
 72
8
 73
4
 74
0
 40
0
 40
0
 40
0
 40
0
 40
1
 40
1
 40
1
 40
1
 10
41.982551
 20
203.766776
 30
0.0
 10
42.098654
 20
203.846026
 30
0.0
 10
42.352925
 20
204.031537
 30
0.0
 10
42.547594
 20
204.179018
 30
0.0
  0
SPLINE
  5
10c
100
AcDbEntity
  8
logo
 62
7
100
AcDbSpline
 70
8
 71
3
 72
8
 73
4
 74
0
 40
0
 40
0
 40
0
 40
0
 40
1
 40
1
 40
1
 40
1
 10
42.547594
 20
204.179018
 30
0.0
 10
44.204913
 20
205.434596
 30
0.0
 10
44.652585
 20
205.753524
 30
0.0
 10
45.496054
 20
206.279541
 30
0.0
  0
SPLINE
  5
10d
100
AcDbEntity
  8
logo
 62
7
100
AcDbSpline
 70
8
 71
3
 72
8
 73
4
 74
0
 40
0
 40
0
 40
0
 40
0
 40
1
 40
1
 40
1
 40
1
 10
45.496054
 20
206.279541
 30
0.0
 10
45.806267
 20
206.472999
 30
0.0
 10
46.119302
 20
206.669891
 30
0.0
 10
46.191686
 20
206.717079
 30
0.0
  0
SPLINE
  5
10e
100
AcDbEntity
  8
logo
 62
7
100
AcDbSpline
 70
8
 71
3
 72
8
 73
4
 74
0
 40
0
 40
0
 40
0
 40
0
 40
1
 40
1
 40
1
 40
1
 10
46.191686
 20
206.717079
 30
0.0
 10
46.264068
 20
206.764266
 30
0.0
 10
46.374053
 20
206.824306
 30
0.0
 10
46.436097
 20
206.850505
 30
0.0
  0
SPLINE
  5
10f
100
AcDbEntity
  8
logo
 62
7
100
AcDbSpline
 70
8
 71
3
 72
8
 73
4
 74
0
 40
0
 40
0
 40
0
 40
0
 40
1
 40
1
 40
1
 40
1
 10
46.436097
 20
206.850505
 30
0.0
 10
46.533932
 20
206.891817
 30
0.0
 10
46.967984
 20
207.154661
 30
0.0
 10
47.394941
 20
207.431140
 30
0.0
  0
SPLINE
  5
110
100
AcDbEntity
  8
logo
 62
7
100
AcDbSpline
 70
8
 71
3
 72
8
 73
4
 74
0
 40
0
 40
0
 40
0
 40
0
 40
1
 40
1
 40
1
 40
1
 10
47.394941
 20
207.431140
 30
0.0
 10
47.696786
 20
207.626605
 30
0.0
 10
48.871756
 20
208.315377
 30
0.0
 10
48.984123
 20
208.362725
 30
0.0
  0
SPLINE
  5
111
100
AcDbEntity
  8
logo
 62
7
100
AcDbSpline
 70
8
 71
3
 72
8
 73
4
 74
0
 40
0
 40
0
 40
0
 40
0
 40
1
 40
1
 40
1
 40
1
 10
48.984123
 20
208.362725
 30
0.0
 10
49.116962
 20
208.418701
 30
0.0
 10
49.416905
 20
208.595397
 30
0.0
 10
50.139862
 20
209.043566
 30
0.0
  0
SPLINE
  5
112
100
AcDbEntity
  8
logo
 62
7
100
AcDbSpline
 70
8
 71
3
 72
8
 73
4
 74
0
 40
0
 40
0
 40
0
 40
0
 40
1
 40
1
 40
1
 40
1
 10
50.139862
 20
209.043566
 30
0.0
 10
50.848887
 20
209.483099
 30
0.0
 10
53.355378
 20
210.868943
 30
0.0
 10
53.441309
 20
210.868943
 30
0.0
  0
SPLINE
  5
113
100
AcDbEntity
  8
logo
 62
7
100
AcDbSpline
 70
8
 71
3
 72
8
 73
4
 74
0
 40
0
 40
0
 40
0
 40
0
 40
1
 40
1
 40
1
 40
1
 10
53.441309
 20
210.868943
 30
0.0
 10
53.466117
 20
210.868943
 30
0.0
 10
53.486414
 20
210.844615
 30
0.0
 10
53.486414
 20
210.814892
 30
0.0
  0
SPLINE
  5
114
100
AcDbEntity
  8
logo
 62
7
100
AcDbSpline
 70
8
 71
3
 72
8
 73
4
 74
0
 40
0
 40
0
 40
0
 40
0
 40
1
 40
1
 40
1
 40
1
 10
53.486414
 20
210.814892
 30
0.0
 10
53.486414
 20
210.757852
 30
0.0
 10
53.339402
 20
210.624104
 30
0.0
 10
52.696779
 20
210.096498
 30
0.0
  0
SPLINE
  5
115
100
AcDbEntity
  8
logo
 62
7
100
AcDbSpline
 70
8
 71
3
 72
8
 73
4
 74
0
 40
0
 40
0
 40
0
 40
0
 40
1
 40
1
 40
1
 40
1
 10
52.696779
 20
210.096498
 30
0.0
 10
52.479629
 20
209.918215
 30
0.0
 10
52.124291
 20
209.607412
 30
0.0
 10
51.907144
 20
209.405827
 30
0.0
  0
SPLINE
  5
116
100
AcDbEntity
  8
logo
 62
7
100
AcDbSpline
 70
8
 71
3
 72
8
 73
4
 74
0
 40
0
 40
0
 40
0
 40
0
 40
1
 40
1
 40
1
 40
1
 10
51.907144
 20
209.405827
 30
0.0
 10
51.342536
 20
208.881686
 30
0.0
 10
51.258044
 20
208.809810
 30
0.0
 10
50.804022
 20
208.467412
 30
0.0
  0
SPLINE
  5
117
100
AcDbEntity
  8
logo
 62
7
100
AcDbSpline
 70
8
 71
3
 72
8
 73
4
 74
0
 40
0
 40
0
 40
0
 40
0
 40
1
 40
1
 40
1
 40
1
 10
50.804022
 20
208.467412
 30
0.0
 10
50.143469
 20
207.969262
 30
0.0
 10
49.617551
 20
207.503869
 30
0.0
 10
48.542273
 20
206.465957
 30
0.0
  0
SPLINE
  5
118
100
AcDbEntity
  8
logo
 62
7
100
AcDbSpline
 70
8
 71
3
 72
8
 73
4
 74
0
 40
0
 40
0
 40
0
 40
0
 40
1
 40
1
 40
1
 40
1
 10
48.542273
 20
206.465957
 30
0.0
 10
48.293838
 20
206.226150
 30
0.0
 10
47.701395
 20
205.666063
 30
0.0
 10
47.225732
 20
205.221315
 30
0.0
  0
SPLINE
  5
119
100
AcDbEntity
  8
logo
 62
7
100
AcDbSpline
 70
8
 71
3
 72
8
 73
4
 74
0
 40
0
 40
0
 40
0
 40
0
 40
1
 40
1
 40
1
 40
1
 10
47.225732
 20
205.221315
 30
0.0
 10
46.750072
 20
204.776570
 30
0.0
 10
46.225528
 20
204.263458
 30
0.0
 10
46.060081
 20
204.081070
 30
0.0
  0
SPLINE
  5
11a
100
AcDbEntity
  8
logo
 62
7
100
AcDbSpline
 70
8
 71
3
 72
8
 73
4
 74
0
 40
0
 40
0
 40
0
 40
0
 40
1
 40
1
 40
1
 40
1
 10
46.060081
 20
204.081070
 30
0.0
 10
45.691098
 20
203.674308
 30
0.0
 10
45.727902
 20
203.710721
 30
0.0
 10
45.436454
 20
203.464135
 30
0.0
  0
SPLINE
  5
11b
100
AcDbEntity
  8
logo
 62
7
100
AcDbSpline
 70
8
 71
3
 72
8
 73
4
 74
0
 40
0
 40
0
 40
0
 40
0
 40
1
 40
1
 40
1
 40
1
 10
45.436454
 20
203.464135
 30
0.0
 10
45.303787
 20
203.351889
 30
0.0
 10
45.068335
 20
203.130568
 30
0.0
 10
44.913228
 20
202.972309
 30
0.0
  0
SPLINE
  5
11c
100
AcDbEntity
  8
logo
 62
7
100
AcDbSpline
 70
8
 71
3
 72
8
 73
4
 74
0
 40
0
 40
0
 40
0
 40
0
 40
1
 40
1
 40
1
 40
1
 10
44.913228
 20
202.972309
 30
0.0
 10
44.676004
 20
202.730267
 30
0.0
 10
44.594218
 20
202.610395
 30
0.0
 10
44.398260
 20
202.217551
 30
0.0
  0
SPLINE
  5
11d
100
AcDbEntity
  8
logo
 62
7
100
AcDbSpline
 70
8
 71
3
 72
8
 73
4
 74
0
 40
0
 40
0
 40
0
 40
0
 40
1
 40
1
 40
1
 40
1
 10
44.398260
 20
202.217551
 30
0.0
 10
44.022408
 20
201.464068
 30
0.0
 10
44.003047
 20
201.040402
 30
0.0
 10
44.317635
 20
200.453275
 30
0.0
  0
SPLINE
  5
11e
100
AcDbEntity
  8
logo
 62
7
100
AcDbSpline
 70
8
 71
3
 72
8
 73
4
 74
0
 40
0
 40
0
 40
0
 40
0
 40
1
 40
1
 40
1
 40
1
 10
44.317635
 20
200.453275
 30
0.0
 10
44.499598
 20
200.113669
 30
0.0
 10
44.633814
 20
199.942546
 30
0.0
 10
45.080377
 20
199.480799
 30
0.0
  0
SPLINE
  5
11f
100
AcDbEntity
  8
logo
 62
7
100
AcDbSpline
 70
8
 71
3
 72
8
 73
4
 74
0
 40
0
 40
0
 40
0
 40
0
 40
1
 40
1
 40
1
 40
1
 10
45.080377
 20
199.480799
 30
0.0
 10
45.673459
 20
198.867556
 30
0.0
 10
48.036807
 20
196.741573
 30
0.0
 10
49.481833
 20
195.521408
 30
0.0
  0
SPLINE
  5
120
100
AcDbEntity
  8
logo
 62
7
100
AcDbSpline
 70
8
 71
3
 72
8
 73
4
 74
0
 40
0
 40
0
 40
0
 40
0
 40
1
 40
1
 40
1
 40
1
 10
49.481833
 20
195.521408
 30
0.0
 10
49.667962
 20
195.364244
 30
0.0
 10
50.048569
 20
195.017887
 30
0.0
 10
50.327631
 20
194.751726
 30
0.0
  0
SPLINE
  5
121
100
AcDbEntity
  8
logo
 62
7
100
AcDbSpline
 70
8
 71
3
 72
8
 73
4
 74
0
 40
0
 40
0
 40
0
 40
0
 40
1
 40
1
 40
1
 40
1
 10
50.327631
 20
194.751726
 30
0.0
 10
50.606689
 20
194.485565
 30
0.0
 10
50.893486
 20
194.217033
 30
0.0
 10
50.964953
 20
194.154989
 30
0.0
  0
SPLINE
  5
122
100
AcDbEntity
  8
logo
 62
7
100
AcDbSpline
 70
8
 71
3
 72
8
 73
4
 74
0
 40
0
 40
0
 40
0
 40
0
 40
1
 40
1
 40
1
 40
1
 10
50.964953
 20
194.154989
 30
0.0
 10
51.036420
 20
194.092949
 30
0.0
 10
51.231117
 20
193.912730
 30
0.0
 10
51.397614
 20
193.754505
 30
0.0
  0
SPLINE
  5
123
100
AcDbEntity
  8
logo
 62
7
100
AcDbSpline
 70
8
 71
3
 72
8
 73
4
 74
0
 40
0
 40
0
 40
0
 40
0
 40
1
 40
1
 40
1
 40
1
 10
51.397614
 20
193.754505
 30
0.0
 10
51.564108
 20
193.596280
 30
0.0
 10
51.835699
 20
193.357898
 30
0.0
 10
52.001146
 20
193.224765
 30
0.0
  0
SPLINE
  5
124
100
AcDbEntity
  8
logo
 62
7
100
AcDbSpline
 70
8
 71
3
 72
8
 73
4
 74
0
 40
0
 40
0
 40
0
 40
0
 40
1
 40
1
 40
1
 40
1
 10
52.001146
 20
193.224765
 30
0.0
 10
52.166593
 20
193.091633
 30
0.0
 10
52.471168
 20
192.827862
 30
0.0
 10
52.677977
 20
192.638607
 30
0.0
  0
SPLINE
  5
125
100
AcDbEntity
  8
logo
 62
7
100
AcDbSpline
 70
8
 71
3
 72
8
 73
4
 74
0
 40
0
 40
0
 40
0
 40
0
 40
1
 40
1
 40
1
 40
1
 10
52.677977
 20
192.638607
 30
0.0
 10
52.884787
 20
192.449351
 30
0.0
 10
53.219926
 20
192.148751
 30
0.0
 10
53.422733
 20
191.970604
 30
0.0
  0
SPLINE
  5
126
100
AcDbEntity
  8
logo
 62
7
100
AcDbSpline
 70
8
 71
3
 72
8
 73
4
 74
0
 40
0
 40
0
 40
0
 40
0
 40
1
 40
1
 40
1
 40
1
 10
53.422733
 20
191.970604
 30
0.0
 10
53.735450
 20
191.695914
 30
0.0
 10
53.789721
 20
191.631632
 30
0.0
 10
53.779948
 20
191.547507
 30
0.0
  0
SPLINE
  5
127
100
AcDbEntity
  8
logo
 62
7
100
AcDbSpline
 70
8
 71
3
 72
8
 73
4
 74
0
 40
0
 40
0
 40
0
 40
0
 40
1
 40
1
 40
1
 40
1
 10
53.779948
 20
191.547507
 30
0.0
 10
53.765780
 20
191.425548
 30
0.0
 10
53.673036
 20
191.401728
 30
0.0
 10
53.586154
 20
191.497735
 30
0.0
  0
LWPOLYLINE
  5
128
100
AcDbEntity
  8
Layer_1
 62
7
100
AcDbPolyline
 90
5
 70
1
 10
90.141112
 20
260.141110
 30
0.0
 10
160.781111
 20
260.141110
 30
0.0
 10
160.781111
 20
140.141113
 30
0.0
 10
90.141112
 20
140.141113
 30
0.0
 10
90.141112
 20
260.141110
 30
0.0
  0
SPLINE
  5
129
100
AcDbEntity
  8
logo
 62
7
100
AcDbSpline
 70
8
 71
3
 72
8
 73
4
 74
0
 40
0
 40
0
 40
0
 40
0
 40
1
 40
1
 40
1
 40
1
 10
53.712023
 20
191.554648
 30
0.0
 10
53.712023
 20
191.561788
 30
0.0
 10
53.673954
 20
191.599854
 30
0.0
 10
53.627421
 20
191.639249
 30
0.0
  0
LWPOLYLINE
  5
12a
100
AcDbEntity
  8
logo
 62
7
100
AcDbPolyline
 90
2
 70
1
 10
53.586154
 20
191.497735
 30
0.0
 10
53.586154
 20
191.497735
 30
0.0
  0
SPLINE
  5
12b
100
AcDbEntity
  8
logo
 62
7
100
AcDbSpline
 70
8
 71
3
 72
8
 73
4
 74
0
 40
0
 40
0
 40
0
 40
0
 40
1
 40
1
 40
1
 40
1
 10
53.614447
 20
191.626278
 30
0.0
 10
53.681763
 20
191.546771
 30
0.0
 10
53.712023
 20
191.524554
 30
0.0
 10
53.712023
 20
191.554648
 30
0.0
  0
LWPOLYLINE
  5
12c
100
AcDbEntity
  8
logo
 62
7
100
AcDbPolyline
 90
3
 70
1
 10
53.627421
 20
191.639249
 30
0.0
 10
53.542816
 20
191.710880
 30
0.0
 10
53.614447
 20
191.626278
 30
0.0
  0
SPLINE
  5
12d
100
AcDbEntity
  8
logo
 62
7
100
AcDbSpline
 70
8
 71
3
 72
8
 73
4
 74
0
 40
0
 40
0
 40
0
 40
0
 40
1
 40
1
 40
1
 40
1
 10
53.524015
 20
191.729682
 30
0.0
 10
53.524015
 20
191.750369
 30
0.0
 10
53.506093
 20
191.767282
 30
0.0
 10
53.484196
 20
191.767282
 30
0.0
  0
SPLINE
  5
12e
100
AcDbEntity
  8
logo
 62
7
100
AcDbSpline
 70
8
 71
3
 72
8
 73
4
 74
0
 40
0
 40
0
 40
0
 40
0
 40
1
 40
1
 40
1
 40
1
 10
53.484196
 20
191.767282
 30
0.0
 10
53.462295
 20
191.767282
 30
0.0
 10
53.454831
 20
191.750349
 30
0.0
 10
53.467601
 20
191.729682
 30
0.0
  0
SPLINE
  5
12f
100
AcDbEntity
  8
logo
 62
7
100
AcDbSpline
 70
8
 71
3
 72
8
 73
4
 74
0
 40
0
 40
0
 40
0
 40
0
 40
1
 40
1
 40
1
 40
1
 10
53.467601
 20
191.729682
 30
0.0
 10
53.480386
 20
191.708995
 30
0.0
 10
53.498301
 20
191.692081
 30
0.0
 10
53.507423
 20
191.692081
 30
0.0
  0
SPLINE
  5
130
100
AcDbEntity
  8
logo
 62
7
100
AcDbSpline
 70
8
 71
3
 72
8
 73
4
 74
0
 40
0
 40
0
 40
0
 40
0
 40
1
 40
1
 40
1
 40
1
 10
53.507423
 20
191.692081
 30
0.0
 10
53.516538
 20
191.692081
 30
0.0
 10
53.524017
 20
191.708986
 30
0.0
 10
53.524017
 20
191.729682
 30
0.0
  0
LWPOLYLINE
  5
131
100
AcDbEntity
  8
logo
 62
7
100
AcDbPolyline
 90
2
 70
1
 10
53.712023
 20
191.554648
 30
0.0
 10
53.712023
 20
191.554648
 30
0.0
  0
SPLINE
  5
132
100
AcDbEntity
  8
logo
 62
7
100
AcDbSpline
 70
8
 71
3
 72
8
 73
4
 74
0
 40
0
 40
0
 40
0
 40
0
 40
1
 40
1
 40
1
 40
1
 10
53.221230
 20
191.984221
 30
0.0
 10
53.108569
 20
192.081579
 30
0.0
 10
52.965629
 20
192.211206
 30
0.0
 10
52.903588
 20
192.272282
 30
0.0
  0
SPLINE
  5
133
100
AcDbEntity
  8
logo
 62
7
100
AcDbSpline
 70
8
 71
3
 72
8
 73
4
 74
0
 40
0
 40
0
 40
0
 40
0
 40
1
 40
1
 40
1
 40
1
 10
52.903588
 20
192.272282
 30
0.0
 10
52.751067
 20
192.422424
 30
0.0
 10
52.352256
 20
192.786291
 30
0.0
 10
52.253470
 20
192.865437
 30
0.0
  0
SPLINE
  5
134
100
AcDbEntity
  8
logo
 62
7
100
AcDbSpline
 70
8
 71
3
 72
8
 73
4
 74
0
 40
0
 40
0
 40
0
 40
0
 40
1
 40
1
 40
1
 40
1
 10
52.253470
 20
192.865437
 30
0.0
 10
51.785480
 20
193.240383
 30
0.0
 10
51.661836
 20
193.348635
 30
0.0
 10
51.128075
 20
193.850737
 30
0.0
  0
SPLINE
  5
135
100
AcDbEntity
  8
logo
 62
7
100
AcDbSpline
 70
8
 71
3
 72
8
 73
4
 74
0
 40
0
 40
0
 40
0
 40
0
 40
1
 40
1
 40
1
 40
1
 10
51.128075
 20
193.850737
 30
0.0
 10
50.998176
 20
193.972931
 30
0.0
 10
50.891897
 20
194.065703
 30
0.0
 10
50.891897
 20
194.056895
 30
0.0
  0
SPLINE
  5
136
100
AcDbEntity
  8
logo
 62
7
100
AcDbSpline
 70
8
 71
3
 72
8
 73
4
 74
0
 40
0
 40
0
 40
0
 40
0
 40
1
 40
1
 40
1
 40
1
 10
50.891897
 20
194.056895
 30
0.0
 10
50.891897
 20
194.048089
 30
0.0
 10
50.701538
 20
194.227306
 30
0.0
 10
50.468877
 20
194.455153
 30
0.0
  0
SPLINE
  5
137
100
AcDbEntity
  8
logo
 62
7
100
AcDbSpline
 70
8
 71
3
 72
8
 73
4
 74
0
 40
0
 40
0
 40
0
 40
0
 40
1
 40
1
 40
1
 40
1
 10
50.468877
 20
194.455153
 30
0.0
 10
50.057679
 20
194.857847
 30
0.0
 10
49.148602
 20
195.677861
 30
0.0
 10
49.113369
 20
195.677861
 30
0.0
  0
SPLINE
  5
138
100
AcDbEntity
  8
logo
 62
7
100
AcDbSpline
 70
8
 71
3
 72
8
 73
4
 74
0
 40
0
 40
0
 40
0
 40
0
 40
1
 40
1
 40
1
 40
1
 10
49.113369
 20
195.677861
 30
0.0
 10
49.103746
 20
195.677861
 30
0.0
 10
49.030049
 20
195.741313
 30
0.0
 10
48.949607
 20
195.818864
 30
0.0
  0
SPLINE
  5
139
100
AcDbEntity
  8
logo
 62
7
100
AcDbSpline
 70
8
 71
3
 72
8
 73
4
 74
0
 40
0
 40
0
 40
0
 40
0
 40
1
 40
1
 40
1
 40
1
 10
48.949607
 20
195.818864
 30
0.0
 10
48.869168
 20
195.896419
 30
0.0
 10
48.643184
 20
196.095239
 30
0.0
 10
48.447424
 20
196.260686
 30
0.0
  0
SPLINE
  5
13a
100
AcDbEntity
  8
logo
 62
7
100
AcDbSpline
 70
8
 71
3
 72
8
 73
4
 74
0
 40
0
 40
0
 40
0
 40
0
 40
1
 40
1
 40
1
 40
1
 10
48.447424
 20
196.260686
 30
0.0
 10
48.251663
 20
196.426133
 30
0.0
 10
47.996921
 20
196.646103
 30
0.0
 10
47.881328
 20
196.749506
 30
0.0
  0
SPLINE
  5
13b
100
AcDbEntity
  8
logo
 62
7
100
AcDbSpline
 70
8
 71
3
 72
8
 73
4
 74
0
 40
0
 40
0
 40
0
 40
0
 40
1
 40
1
 40
1
 40
1
 10
47.881328
 20
196.749506
 30
0.0
 10
47.459892
 20
197.126510
 30
0.0
 10
47.157157
 20
197.388980
 30
0.0
 10
47.131856
 20
197.399298
 30
0.0
  0
SPLINE
  5
13c
100
AcDbEntity
  8
logo
 62
7
100
AcDbSpline
 70
8
 71
3
 72
8
 73
4
 74
0
 40
0
 40
0
 40
0
 40
0
 40
1
 40
1
 40
1
 40
1
 10
47.131856
 20
197.399298
 30
0.0
 10
47.117604
 20
197.405111
 30
0.0
 10
46.988386
 20
197.523552
 30
0.0
 10
46.844684
 20
197.662509
 30
0.0
  0
SPLINE
  5
13d
100
AcDbEntity
  8
logo
 62
7
100
AcDbSpline
 70
8
 71
3
 72
8
 73
4
 74
0
 40
0
 40
0
 40
0
 40
0
 40
1
 40
1
 40
1
 40
1
 10
46.844684
 20
197.662509
 30
0.0
 10
46.537654
 20
197.959404
 30
0.0
 10
45.988221
 20
198.459643
 30
0.0
 10
45.851301
 20
198.566947
 30
0.0
  0
SPLINE
  5
13e
100
AcDbEntity
  8
logo
 62
7
100
AcDbSpline
 70
8
 71
3
 72
8
 73
4
 74
0
 40
0
 40
0
 40
0
 40
0
 40
1
 40
1
 40
1
 40
1
 10
45.851301
 20
198.566947
 30
0.0
 10
45.661772
 20
198.715480
 30
0.0
 10
44.599733
 20
199.798313
 30
0.0
 10
44.503701
 20
199.940932
 30
0.0
  0
SPLINE
  5
13f
100
AcDbEntity
  8
logo
 62
7
100
AcDbSpline
 70
8
 71
3
 72
8
 73
4
 74
0
 40
0
 40
0
 40
0
 40
0
 40
1
 40
1
 40
1
 40
1
 10
44.503701
 20
199.940932
 30
0.0
 10
44.240749
 20
200.331454
 30
0.0
 10
44.154050
 20
200.491062
 30
0.0
 10
44.085383
 20
200.711046
 30
0.0
  0
SPLINE
  5
140
100
AcDbEntity
  8
logo
 62
7
100
AcDbSpline
 70
8
 71
3
 72
8
 73
4
 74
0
 40
0
 40
0
 40
0
 40
0
 40
1
 40
1
 40
1
 40
1
 10
44.085383
 20
200.711046
 30
0.0
 10
43.943109
 20
201.166829
 30
0.0
 10
44.018629
 20
201.815596
 30
0.0
 10
44.260437
 20
202.214838
 30
0.0
  0
SPLINE
  5
141
100
AcDbEntity
  8
logo
 62
7
100
AcDbSpline
 70
8
 71
3
 72
8
 73
4
 74
0
 40
0
 40
0
 40
0
 40
0
 40
1
 40
1
 40
1
 40
1
 10
44.260437
 20
202.214838
 30
0.0
 10
44.319599
 20
202.312521
 30
0.0
 10
44.418766
 20
202.489932
 30
0.0
 10
44.480807
 20
202.609080
 30
0.0
  0
SPLINE
  5
142
100
AcDbEntity
  8
logo
 62
7
100
AcDbSpline
 70
8
 71
3
 72
8
 73
4
 74
0
 40
0
 40
0
 40
0
 40
0
 40
1
 40
1
 40
1
 40
1
 10
44.480807
 20
202.609080
 30
0.0
 10
44.557132
 20
202.755652
 30
0.0
 10
44.723939
 20
202.952838
 30
0.0
 10
44.996571
 20
203.218768
 30
0.0
  0
SPLINE
  5
143
100
AcDbEntity
  8
logo
 62
7
100
AcDbSpline
 70
8
 71
3
 72
8
 73
4
 74
0
 40
0
 40
0
 40
0
 40
0
 40
1
 40
1
 40
1
 40
1
 10
44.996571
 20
203.218768
 30
0.0
 10
45.218200
 20
203.434944
 30
0.0
 10
45.414703
 20
203.611816
 30
0.0
 10
45.433248
 20
203.611816
 30
0.0
  0
SPLINE
  5
144
100
AcDbEntity
  8
logo
 62
7
100
AcDbSpline
 70
8
 71
3
 72
8
 73
4
 74
0
 40
0
 40
0
 40
0
 40
0
 40
1
 40
1
 40
1
 40
1
 10
45.433248
 20
203.611816
 30
0.0
 10
45.463813
 20
203.611816
 30
0.0
 10
45.573538
 20
203.723847
 30
0.0
 10
45.913638
 20
204.102304
 30
0.0
  0
SPLINE
  5
145
100
AcDbEntity
  8
logo
 62
7
100
AcDbSpline
 70
8
 71
3
 72
8
 73
4
 74
0
 40
0
 40
0
 40
0
 40
0
 40
1
 40
1
 40
1
 40
1
 10
45.913638
 20
204.102304
 30
0.0
 10
46.087044
 20
204.295262
 30
0.0
 10
47.086393
 20
205.260990
 30
0.0
 10
47.622056
 20
205.753236
 30
0.0
  0
SPLINE
  5
146
100
AcDbEntity
  8
logo
 62
7
100
AcDbSpline
 70
8
 71
3
 72
8
 73
4
 74
0
 40
0
 40
0
 40
0
 40
0
 40
1
 40
1
 40
1
 40
1
 10
47.622056
 20
205.753236
 30
0.0
 10
47.879739
 20
205.990038
 30
0.0
 10
48.293621
 20
206.380831
 30
0.0
 10
48.541790
 20
206.621668
 30
0.0
  0
SPLINE
  5
147
100
AcDbEntity
  8
logo
 62
7
100
AcDbSpline
 70
8
 71
3
 72
8
 73
4
 74
0
 40
0
 40
0
 40
0
 40
0
 40
1
 40
1
 40
1
 40
1
 10
48.541790
 20
206.621668
 30
0.0
 10
49.296131
 20
207.353721
 30
0.0
 10
49.804687
 20
207.820573
 30
0.0
 10
50.130462
 20
208.080071
 30
0.0
  0
SPLINE
  5
148
100
AcDbEntity
  8
logo
 62
7
100
AcDbSpline
 70
8
 71
3
 72
8
 73
4
 74
0
 40
0
 40
0
 40
0
 40
0
 40
1
 40
1
 40
1
 40
1
 10
50.130462
 20
208.080071
 30
0.0
 10
50.301079
 20
208.215978
 30
0.0
 10
50.440677
 20
208.337836
 30
0.0
 10
50.440677
 20
208.350869
 30
0.0
  0
SPLINE
  5
149
100
AcDbEntity
  8
logo
 62
7
100
AcDbSpline
 70
8
 71
3
 72
8
 73
4
 74
0
 40
0
 40
0
 40
0
 40
0
 40
1
 40
1
 40
1
 40
1
 10
50.440677
 20
208.350869
 30
0.0
 10
50.440677
 20
208.363907
 30
0.0
 10
50.529510
 20
208.431841
 30
0.0
 10
50.638086
 20
208.501844
 30
0.0
  0
SPLINE
  5
14a
100
AcDbEntity
  8
logo
 62
7
100
AcDbSpline
 70
8
 71
3
 72
8
 73
4
 74
0
 40
0
 40
0
 40
0
 40
0
 40
1
 40
1
 40
1
 40
1
 10
50.638086
 20
208.501844
 30
0.0
 10
50.871176
 20
208.652130
 30
0.0
 10
50.842472
 20
208.630526
 30
0.0
 10
51.172161
 20
208.903768
 30
0.0
  0
SPLINE
  5
14b
100
AcDbEntity
  8
logo
 62
7
100
AcDbSpline
 70
8
 71
3
 72
8
 73
4
 74
0
 40
0
 40
0
 40
0
 40
0
 40
1
 40
1
 40
1
 40
1
 10
51.172161
 20
208.903768
 30
0.0
 10
51.315967
 20
209.022950
 30
0.0
 10
51.595158
 20
209.273050
 30
0.0
 10
51.792590
 20
209.459545
 30
0.0
  0
SPLINE
  5
14c
100
AcDbEntity
  8
logo
 62
7
100
AcDbSpline
 70
8
 71
3
 72
8
 73
4
 74
0
 40
0
 40
0
 40
0
 40
0
 40
1
 40
1
 40
1
 40
1
 10
51.792590
 20
209.459545
 30
0.0
 10
51.990021
 20
209.646037
 30
0.0
 10
52.306384
 20
209.925231
 30
0.0
 10
52.495622
 20
210.079971
 30
0.0
  0
SPLINE
  5
14d
100
AcDbEntity
  8
logo
 62
7
100
AcDbSpline
 70
8
 71
3
 72
8
 73
4
 74
0
 40
0
 40
0
 40
0
 40
0
 40
1
 40
1
 40
1
 40
1
 10
52.495622
 20
210.079971
 30
0.0
 10
52.684858
 20
210.234713
 30
0.0
 10
52.896369
 20
210.408901
 30
0.0
 10
52.965644
 20
210.467056
 30
0.0
  0
LWPOLYLINE
  5
14e
100
AcDbEntity
  8
logo
 62
7
100
AcDbPolyline
 90
2
 70
1
 10
53.524017
 20
191.729682
 30
0.0
 10
53.524015
 20
191.729682
 30
0.0
  0
SPLINE
  5
14f
100
AcDbEntity
  8
logo
 62
7
100
AcDbSpline
 70
8
 71
3
 72
8
 73
4
 74
0
 40
0
 40
0
 40
0
 40
0
 40
1
 40
1
 40
1
 40
1
 10
52.884787
 20
210.455987
 30
0.0
 10
52.771043
 20
210.391745
 30
0.0
 10
52.585019
 20
210.293402
 30
0.0
 10
52.471402
 20
210.237448
 30
0.0
  0
SPLINE
  5
150
100
AcDbEntity
  8
logo
 62
7
100
AcDbSpline
 70
8
 71
3
 72
8
 73
4
 74
0
 40
0
 40
0
 40
0
 40
0
 40
1
 40
1
 40
1
 40
1
 10
52.471402
 20
210.237448
 30
0.0
 10
52.357785
 20
210.181492
 30
0.0
 10
52.247800
 20
210.122254
 30
0.0
 10
52.226992
 20
210.105808
 30
0.0
  0
SPLINE
  5
151
100
AcDbEntity
  8
logo
 62
7
100
AcDbSpline
 70
8
 71
3
 72
8
 73
4
 74
0
 40
0
 40
0
 40
0
 40
0
 40
1
 40
1
 40
1
 40
1
 10
52.226992
 20
210.105808
 30
0.0
 10
52.191231
 20
210.077544
 30
0.0
 10
51.633950
 20
209.767003
 30
0.0
 10
51.134594
 20
209.497075
 30
0.0
  0
SPLINE
  5
152
100
AcDbEntity
  8
logo
 62
7
100
AcDbSpline
 70
8
 71
3
 72
8
 73
4
 74
0
 40
0
 40
0
 40
0
 40
0
 40
1
 40
1
 40
1
 40
1
 10
51.134594
 20
209.497075
 30
0.0
 10
50.886673
 20
209.363059
 30
0.0
 10
50.522872
 20
209.153283
 30
0.0
 10
50.383660
 20
209.064061
 30
0.0
  0
SPLINE
  5
153
100
AcDbEntity
  8
logo
 62
7
100
AcDbSpline
 70
8
 71
3
 72
8
 73
4
 74
0
 40
0
 40
0
 40
0
 40
0
 40
1
 40
1
 40
1
 40
1
 10
50.383660
 20
209.064061
 30
0.0
 10
50.335256
 20
209.033039
 30
0.0
 10
50.171765
 20
208.933325
 30
0.0
 10
50.020350
 20
208.842472
 30
0.0
  0
SPLINE
  5
154
100
AcDbEntity
  8
logo
 62
7
100
AcDbSpline
 70
8
 71
3
 72
8
 73
4
 74
0
 40
0
 40
0
 40
0
 40
0
 40
1
 40
1
 40
1
 40
1
 10
50.020350
 20
208.842472
 30
0.0
 10
49.510103
 20
208.536314
 30
0.0
 10
49.390150
 20
208.451495
 30
0.0
 10
49.413651
 20
208.413474
 30
0.0
  0
SPLINE
  5
155
100
AcDbEntity
  8
logo
 62
7
100
AcDbSpline
 70
8
 71
3
 72
8
 73
4
 74
0
 40
0
 40
0
 40
0
 40
0
 40
1
 40
1
 40
1
 40
1
 10
49.413651
 20
208.413474
 30
0.0
 10
49.426690
 20
208.392392
 30
0.0
 10
49.418364
 20
208.387171
 30
0.0
 10
49.394883
 20
208.401677
 30
0.0
  0
SPLINE
  5
156
100
AcDbEntity
  8
logo
 62
7
100
AcDbSpline
 70
8
 71
3
 72
8
 73
4
 74
0
 40
0
 40
0
 40
0
 40
0
 40
1
 40
1
 40
1
 40
1
 10
49.394883
 20
208.401677
 30
0.0
 10
49.346677
 20
208.431471
 30
0.0
 10
49.017595
 20
208.270181
 30
0.0
 10
48.579394
 20
208.001991
 30
0.0
  0
SPLINE
  5
157
100
AcDbEntity
  8
logo
 62
7
100
AcDbSpline
 70
8
 71
3
 72
8
 73
4
 74
0
 40
0
 40
0
 40
0
 40
0
 40
1
 40
1
 40
1
 40
1
 10
48.579394
 20
208.001991
 30
0.0
 10
48.212835
 20
207.777647
 30
0.0
 10
48.262235
 20
207.807340
 30
0.0
 10
47.720620
 20
207.485832
 30
0.0
  0
SPLINE
  5
158
100
AcDbEntity
  8
logo
 62
7
100
AcDbSpline
 70
8
 71
3
 72
8
 73
4
 74
0
 40
0
 40
0
 40
0
 40
0
 40
1
 40
1
 40
1
 40
1
 10
47.720620
 20
207.485832
 30
0.0
 10
47.475783
 20
207.340496
 30
0.0
 10
47.267306
 20
207.221585
 30
0.0
 10
47.257338
 20
207.221585
 30
0.0
  0
SPLINE
  5
159
100
AcDbEntity
  8
logo
 62
7
100
AcDbSpline
 70
8
 71
3
 72
8
 73
4
 74
0
 40
0
 40
0
 40
0
 40
0
 40
1
 40
1
 40
1
 40
1
 10
47.257338
 20
207.221585
 30
0.0
 10
47.247375
 20
207.221585
 30
0.0
 10
47.134650
 20
207.147462
 30
0.0
 10
47.006860
 20
207.056869
 30
0.0
  0
SPLINE
  5
15a
100
AcDbEntity
  8
logo
 62
7
100
AcDbSpline
 70
8
 71
3
 72
8
 73
4
 74
0
 40
0
 40
0
 40
0
 40
0
 40
1
 40
1
 40
1
 40
1
 10
47.006860
 20
207.056869
 30
0.0
 10
46.879070
 20
206.966275
 30
0.0
 10
46.682335
 20
206.845851
 30
0.0
 10
46.569675
 20
206.789260
 30
0.0
  0
SPLINE
  5
15b
100
AcDbEntity
  8
logo
 62
7
100
AcDbSpline
 70
8
 71
3
 72
8
 73
4
 74
0
 40
0
 40
0
 40
0
 40
0
 40
1
 40
1
 40
1
 40
1
 10
46.569675
 20
206.789260
 30
0.0
 10
46.457015
 20
206.732669
 30
0.0
 10
46.237045
 20
206.606769
 30
0.0
 10
46.080852
 20
206.509482
 30
0.0
  0
SPLINE
  5
15c
100
AcDbEntity
  8
logo
 62
7
100
AcDbSpline
 70
8
 71
3
 72
8
 73
4
 74
0
 40
0
 40
0
 40
0
 40
0
 40
1
 40
1
 40
1
 40
1
 10
46.080852
 20
206.509482
 30
0.0
 10
45.924662
 20
206.412197
 30
0.0
 10
45.771486
 20
206.321220
 30
0.0
 10
45.740464
 20
206.307309
 30
0.0
  0
SPLINE
  5
15d
100
AcDbEntity
  8
logo
 62
7
100
AcDbSpline
 70
8
 71
3
 72
8
 73
4
 74
0
 40
0
 40
0
 40
0
 40
0
 40
1
 40
1
 40
1
 40
1
 10
45.740464
 20
206.307309
 30
0.0
 10
45.671074
 20
206.276197
 30
0.0
 10
45.671909
 20
206.276742
 30
0.0
 10
44.953451
 20
205.794912
 30
0.0
  0
SPLINE
  5
15e
100
AcDbEntity
  8
logo
 62
7
100
AcDbSpline
 70
8
 71
3
 72
8
 73
4
 74
0
 40
0
 40
0
 40
0
 40
0
 40
1
 40
1
 40
1
 40
1
 10
44.953451
 20
205.794912
 30
0.0
 10
44.631455
 20
205.578967
 30
0.0
 10
44.249557
 20
205.313828
 30
0.0
 10
44.104791
 20
205.205711
 30
0.0
  0
SPLINE
  5
15f
100
AcDbEntity
  8
logo
 62
7
100
AcDbSpline
 70
8
 71
3
 72
8
 73
4
 74
0
 40
0
 40
0
 40
0
 40
0
 40
1
 40
1
 40
1
 40
1
 10
44.104791
 20
205.205711
 30
0.0
 10
43.566320
 20
204.803558
 30
0.0
 10
43.419539
 20
204.693142
 30
0.0
 10
43.070746
 20
204.427844
 30
0.0
  0
SPLINE
  5
160
100
AcDbEntity
  8
logo
 62
7
100
AcDbSpline
 70
8
 71
3
 72
8
 73
4
 74
0
 40
0
 40
0
 40
0
 40
0
 40
1
 40
1
 40
1
 40
1
 10
43.070746
 20
204.427844
 30
0.0
 10
42.568763
 20
204.046034
 30
0.0
 10
42.058429
 20
203.677320
 30
0.0
 10
41.914445
 20
203.592427
 30
0.0
  0
SPLINE
  5
161
100
AcDbEntity
  8
logo
 62
7
100
AcDbSpline
 70
8
 71
3
 72
8
 73
4
 74
0
 40
0
 40
0
 40
0
 40
0
 40
1
 40
1
 40
1
 40
1
 10
41.914445
 20
203.592427
 30
0.0
 10
41.847206
 20
203.552783
 30
0.0
 10
41.782611
 20
203.490167
 30
0.0
 10
41.770904
 20
203.453280
 30
0.0
  0
SPLINE
  5
162
100
AcDbEntity
  8
logo
 62
7
100
AcDbSpline
 70
8
 71
3
 72
8
 73
4
 74
0
 40
0
 40
0
 40
0
 40
0
 40
1
 40
1
 40
1
 40
1
 10
41.770904
 20
203.453280
 30
0.0
 10
41.759192
 20
203.416391
 30
0.0
 10
41.737574
 20
203.386213
 30
0.0
 10
41.722853
 20
203.386213
 30
0.0
  0
SPLINE
  5
163
100
AcDbEntity
  8
logo
 62
7
100
AcDbSpline
 70
8
 71
3
 72
8
 73
4
 74
0
 40
0
 40
0
 40
0
 40
0
 40
1
 40
1
 40
1
 40
1
 10
41.722853
 20
203.386213
 30
0.0
 10
41.663953
 20
203.386213
 30
0.0
 10
41.426178
 20
203.119104
 30
0.0
 10
41.348874
 20
202.966097
 30
0.0
  0
SPLINE
  5
164
100
AcDbEntity
  8
logo
 62
7
100
AcDbSpline
 70
8
 71
3
 72
8
 73
4
 74
0
 40
0
 40
0
 40
0
 40
0
 40
1
 40
1
 40
1
 40
1
 10
41.348874
 20
202.966097
 30
0.0
 10
41.168128
 20
202.608358
 30
0.0
 10
41.096782
 20
202.298929
 30
0.0
 10
41.098936
 20
201.882144
 30
0.0
  0
SPLINE
  5
165
100
AcDbEntity
  8
logo
 62
7
100
AcDbSpline
 70
8
 71
3
 72
8
 73
4
 74
0
 40
0
 40
0
 40
0
 40
0
 40
1
 40
1
 40
1
 40
1
 10
41.098936
 20
201.882144
 30
0.0
 10
41.100911
 20
201.510733
 30
0.0
 10
41.108390
 20
201.472837
 30
0.0
 10
41.226190
 20
201.242916
 30
0.0
  0
SPLINE
  5
166
100
AcDbEntity
  8
logo
 62
7
100
AcDbSpline
 70
8
 71
3
 72
8
 73
4
 74
0
 40
0
 40
0
 40
0
 40
0
 40
1
 40
1
 40
1
 40
1
 10
41.226190
 20
201.242916
 30
0.0
 10
41.441141
 20
200.823336
 30
0.0
 10
42.006802
 20
200.039661
 30
0.0
 10
42.094703
 20
200.039661
 30
0.0
  0
SPLINE
  5
167
100
AcDbEntity
  8
logo
 62
7
100
AcDbSpline
 70
8
 71
3
 72
8
 73
4
 74
0
 40
0
 40
0
 40
0
 40
0
 40
1
 40
1
 40
1
 40
1
 10
42.094703
 20
200.039661
 30
0.0
 10
42.114515
 20
200.039661
 30
0.0
 10
42.130703
 20
200.016237
 30
0.0
 10
42.130703
 20
199.987583
 30
0.0
  0
SPLINE
  5
168
100
AcDbEntity
  8
logo
 62
7
100
AcDbSpline
 70
8
 71
3
 72
8
 73
4
 74
0
 40
0
 40
0
 40
0
 40
0
 40
1
 40
1
 40
1
 40
1
 10
42.130703
 20
199.987583
 30
0.0
 10
42.130703
 20
199.958940
 30
0.0
 10
42.174304
 20
199.906938
 30
0.0
 10
42.227593
 20
199.872021
 30
0.0
  0
SPLINE
  5
169
100
AcDbEntity
  8
logo
 62
7
100
AcDbSpline
 70
8
 71
3
 72
8
 73
4
 74
0
 40
0
 40
0
 40
0
 40
0
 40
1
 40
1
 40
1
 40
1
 10
42.227593
 20
199.872021
 30
0.0
 10
42.321754
 20
199.810322
 30
0.0
 10
42.373592
 20
199.768934
 30
0.0
 10
42.654460
 20
199.531182
 30
0.0
  0
SPLINE
  5
16a
100
AcDbEntity
  8
logo
 62
7
100
AcDbSpline
 70
8
 71
3
 72
8
 73
4
 74
0
 40
0
 40
0
 40
0
 40
0
 40
1
 40
1
 40
1
 40
1
 10
42.654460
 20
199.531182
 30
0.0
 10
42.728309
 20
199.468669
 30
0.0
 10
42.923333
 20
199.316382
 30
0.0
 10
43.087849
 20
199.192766
 30
0.0
  0
SPLINE
  5
16b
100
AcDbEntity
  8
logo
 62
7
100
AcDbSpline
 70
8
 71
3
 72
8
 73
4
 74
0
 40
0
 40
0
 40
0
 40
0
 40
1
 40
1
 40
1
 40
1
 10
43.087849
 20
199.192766
 30
0.0
 10
43.252362
 20
199.069153
 30
0.0
 10
43.428271
 20
198.929941
 30
0.0
 10
43.478755
 20
198.883408
 30
0.0
  0
SPLINE
  5
16c
100
AcDbEntity
  8
logo
 62
7
100
AcDbSpline
 70
8
 71
3
 72
8
 73
4
 74
0
 40
0
 40
0
 40
0
 40
0
 40
1
 40
1
 40
1
 40
1
 10
43.478755
 20
198.883408
 30
0.0
 10
43.529242
 20
198.836878
 30
0.0
 10
43.581478
 20
198.798807
 30
0.0
 10
43.594836
 20
198.798807
 30
0.0
  0
SPLINE
  5
16d
100
AcDbEntity
  8
logo
 62
7
100
AcDbSpline
 70
8
 71
3
 72
8
 73
4
 74
0
 40
0
 40
0
 40
0
 40
0
 40
1
 40
1
 40
1
 40
1
 10
43.594836
 20
198.798807
 30
0.0
 10
43.608185
 20
198.798807
 30
0.0
 10
43.703017
 20
198.722734
 30
0.0
 10
43.805554
 20
198.629761
 30
0.0
  0
SPLINE
  5
16e
100
AcDbEntity
  8
logo
 62
7
100
AcDbSpline
 70
8
 71
3
 72
8
 73
4
 74
0
 40
0
 40
0
 40
0
 40
0
 40
1
 40
1
 40
1
 40
1
 10
43.805554
 20
198.629761
 30
0.0
 10
43.908091
 20
198.536786
 30
0.0
 10
44.014136
 20
198.460642
 30
0.0
 10
44.041207
 20
198.460552
 30
0.0
  0
SPLINE
  5
16f
100
AcDbEntity
  8
logo
 62
7
100
AcDbSpline
 70
8
 71
3
 72
8
 73
4
 74
0
 40
0
 40
0
 40
0
 40
0
 40
1
 40
1
 40
1
 40
1
 10
44.041207
 20
198.460552
 30
0.0
 10
44.068272
 20
198.460479
 30
0.0
 10
44.080416
 20
198.444183
 30
0.0
 10
44.068187
 20
198.424391
 30
0.0
  0
SPLINE
  5
170
100
AcDbEntity
  8
logo
 62
7
100
AcDbSpline
 70
8
 71
3
 72
8
 73
4
 74
0
 40
0
 40
0
 40
0
 40
0
 40
1
 40
1
 40
1
 40
1
 10
44.068187
 20
198.424391
 30
0.0
 10
44.055939
 20
198.404579
 30
0.0
 10
44.093023
 20
198.363665
 30
0.0
 10
44.150574
 20
198.333445
 30
0.0
  0
SPLINE
  5
171
100
AcDbEntity
  8
logo
 62
7
100
AcDbSpline
 70
8
 71
3
 72
8
 73
4
 74
0
 40
0
 40
0
 40
0
 40
0
 40
1
 40
1
 40
1
 40
1
 10
44.150574
 20
198.333445
 30
0.0
 10
44.208121
 20
198.303224
 30
0.0
 10
44.343043
 20
198.205211
 30
0.0
 10
44.450401
 20
198.115634
 30
0.0
  0
SPLINE
  5
172
100
AcDbEntity
  8
logo
 62
7
100
AcDbSpline
 70
8
 71
3
 72
8
 73
4
 74
0
 40
0
 40
0
 40
0
 40
0
 40
1
 40
1
 40
1
 40
1
 10
44.450401
 20
198.115634
 30
0.0
 10
44.557758
 20
198.026057
 30
0.0
 10
44.726967
 20
197.893652
 30
0.0
 10
44.826420
 20
197.821400
 30
0.0
  0
SPLINE
  5
173
100
AcDbEntity
  8
logo
 62
7
100
AcDbSpline
 70
8
 71
3
 72
8
 73
4
 74
0
 40
0
 40
0
 40
0
 40
0
 40
1
 40
1
 40
1
 40
1
 10
44.826420
 20
197.821400
 30
0.0
 10
44.925872
 20
197.749149
 30
0.0
 10
45.015700
 20
197.679996
 30
0.0
 10
45.026041
 20
197.667730
 30
0.0
  0
SPLINE
  5
174
100
AcDbEntity
  8
logo
 62
7
100
AcDbSpline
 70
8
 71
3
 72
8
 73
4
 74
0
 40
0
 40
0
 40
0
 40
0
 40
1
 40
1
 40
1
 40
1
 10
45.026041
 20
197.667730
 30
0.0
 10
45.036370
 20
197.655454
 30
0.0
 10
45.239432
 20
197.499958
 30
0.0
 10
45.477261
 20
197.322161
 30
0.0
  0
SPLINE
  5
175
100
AcDbEntity
  8
logo
 62
7
100
AcDbSpline
 70
8
 71
3
 72
8
 73
4
 74
0
 40
0
 40
0
 40
0
 40
0
 40
1
 40
1
 40
1
 40
1
 10
45.477261
 20
197.322161
 30
0.0
 10
45.715092
 20
197.144363
 30
0.0
 10
45.951984
 20
196.966778
 30
0.0
 10
46.003684
 20
196.927526
 30
0.0
  0
SPLINE
  5
176
100
AcDbEntity
  8
logo
 62
7
100
AcDbSpline
 70
8
 71
3
 72
8
 73
4
 74
0
 40
0
 40
0
 40
0
 40
0
 40
1
 40
1
 40
1
 40
1
 10
46.003684
 20
196.927526
 30
0.0
 10
46.055387
 20
196.888272
 30
0.0
 10
46.266899
 20
196.740436
 30
0.0
 10
46.473705
 20
196.598997
 30
0.0
  0
SPLINE
  5
177
100
AcDbEntity
  8
logo
 62
7
100
AcDbSpline
 70
8
 71
3
 72
8
 73
4
 74
0
 40
0
 40
0
 40
0
 40
0
 40
1
 40
1
 40
1
 40
1
 10
46.473705
 20
196.598997
 30
0.0
 10
46.865207
 20
196.331245
 30
0.0
 10
47.383367
 20
195.975622
 30
0.0
 10
47.545354
 20
195.863504
 30
0.0
  0
SPLINE
  5
178
100
AcDbEntity
  8
logo
 62
7
100
AcDbSpline
 70
8
 71
3
 72
8
 73
4
 74
0
 40
0
 40
0
 40
0
 40
0
 40
1
 40
1
 40
1
 40
1
 10
47.545354
 20
195.863504
 30
0.0
 10
47.597057
 20
195.827715
 30
0.0
 10
47.893170
 20
195.633670
 30
0.0
 10
48.203383
 20
195.432285
 30
0.0
  0
SPLINE
  5
179
100
AcDbEntity
  8
logo
 62
7
100
AcDbSpline
 70
8
 71
3
 72
8
 73
4
 74
0
 40
0
 40
0
 40
0
 40
0
 40
1
 40
1
 40
1
 40
1
 10
48.203383
 20
195.432285
 30
0.0
 10
49.184639
 20
194.795278
 30
0.0
 10
49.588327
 20
194.512895
 30
0.0
 10
50.162897
 20
194.061580
 30
0.0
  0
SPLINE
  5
17a
100
AcDbEntity
  8
logo
 62
7
100
AcDbSpline
 70
8
 71
3
 72
8
 73
4
 74
0
 40
0
 40
0
 40
0
 40
0
 40
1
 40
1
 40
1
 40
1
 10
50.162897
 20
194.061580
 30
0.0
 10
50.268624
 20
193.978533
 30
0.0
 10
50.373540
 20
193.910585
 30
0.0
 10
50.396038
 20
193.910585
 30
0.0
  0
SPLINE
  5
17b
100
AcDbEntity
  8
logo
 62
7
100
AcDbSpline
 70
8
 71
3
 72
8
 73
4
 74
0
 40
0
 40
0
 40
0
 40
0
 40
1
 40
1
 40
1
 40
1
 10
50.396038
 20
193.910585
 30
0.0
 10
50.418532
 20
193.910585
 30
0.0
 10
50.450479
 20
193.888487
 30
0.0
 10
50.467017
 20
193.861509
 30
0.0
  0
SPLINE
  5
17c
100
AcDbEntity
  8
logo
 62
7
100
AcDbSpline
 70
8
 71
3
 72
8
 73
4
 74
0
 40
0
 40
0
 40
0
 40
0
 40
1
 40
1
 40
1
 40
1
 10
50.467017
 20
193.861509
 30
0.0
 10
50.483556
 20
193.834529
 30
0.0
 10
50.564771
 20
193.762701
 30
0.0
 10
50.647496
 20
193.701916
 30
0.0
  0
SPLINE
  5
17d
100
AcDbEntity
  8
logo
 62
7
100
AcDbSpline
 70
8
 71
3
 72
8
 73
4
 74
0
 40
0
 40
0
 40
0
 40
0
 40
1
 40
1
 40
1
 40
1
 10
50.647496
 20
193.701916
 30
0.0
 10
50.730218
 20
193.641133
 30
0.0
 10
50.806361
 20
193.581802
 30
0.0
 10
50.816702
 20
193.570073
 30
0.0
  0
SPLINE
  5
17e
100
AcDbEntity
  8
logo
 62
7
100
AcDbSpline
 70
8
 71
3
 72
8
 73
4
 74
0
 40
0
 40
0
 40
0
 40
0
 40
1
 40
1
 40
1
 40
1
 10
50.816702
 20
193.570073
 30
0.0
 10
50.827031
 20
193.558332
 30
0.0
 10
50.996249
 20
193.441165
 30
0.0
 10
51.192718
 20
193.309672
 30
0.0
  0
SPLINE
  5
17f
100
AcDbEntity
  8
logo
 62
7
100
AcDbSpline
 70
8
 71
3
 72
8
 73
4
 74
0
 40
0
 40
0
 40
0
 40
0
 40
1
 40
1
 40
1
 40
1
 10
51.192718
 20
193.309672
 30
0.0
 10
51.389187
 20
193.178182
 30
0.0
 10
51.685300
 20
192.977327
 30
0.0
 10
51.850750
 20
192.863329
 30
0.0
  0
SPLINE
  5
180
100
AcDbEntity
  8
logo
 62
7
100
AcDbSpline
 70
8
 71
3
 72
8
 73
4
 74
0
 40
0
 40
0
 40
0
 40
0
 40
1
 40
1
 40
1
 40
1
 10
51.850750
 20
192.863329
 30
0.0
 10
52.016197
 20
192.749328
 30
0.0
 10
52.312031
 20
192.547184
 30
0.0
 10
52.508161
 20
192.414113
 30
0.0
  0
SPLINE
  5
181
100
AcDbEntity
  8
logo
 62
7
100
AcDbSpline
 70
8
 71
3
 72
8
 73
4
 74
0
 40
0
 40
0
 40
0
 40
0
 40
1
 40
1
 40
1
 40
1
 10
52.508161
 20
192.414113
 30
0.0
 10
53.061255
 20
192.038856
 30
0.0
 10
53.353575
 20
191.828014
 30
0.0
 10
53.368135
 20
191.793845
 30
0.0
  0
SPLINE
  5
182
100
AcDbEntity
  8
logo
 62
7
100
AcDbSpline
 70
8
 71
3
 72
8
 73
4
 74
0
 40
0
 40
0
 40
0
 40
0
 40
1
 40
1
 40
1
 40
1
 10
53.368135
 20
191.793845
 30
0.0
 10
53.375444
 20
191.776658
 30
0.0
 10
53.391503
 20
191.772622
 30
0.0
 10
53.403762
 20
191.784899
 30
0.0
  0
SPLINE
  5
183
100
AcDbEntity
  8
logo
 62
7
100
AcDbSpline
 70
8
 71
3
 72
8
 73
4
 74
0
 40
0
 40
0
 40
0
 40
0
 40
1
 40
1
 40
1
 40
1
 10
53.403762
 20
191.784899
 30
0.0
 10
53.416039
 20
191.797175
 30
0.0
 10
53.333898
 20
191.886865
 30
0.0
 10
53.221238
 20
191.984224
 30
0.0
  0
LWPOLYLINE
  5
184
100
AcDbEntity
  8
logo
 62
7
100
AcDbPolyline
 90
3
 70
1
 10
52.965644
 20
210.467056
 30
0.0
 10
53.091596
 20
210.572790
 30
0.0
 10
52.884787
 20
210.455987
 30
0.0
  0
SPLINE
  5
185
100
AcDbEntity
  8
logo
 62
7
100
AcDbSpline
 70
8
 71
3
 72
8
 73
4
 74
0
 40
0
 40
0
 40
0
 40
0
 40
1
 40
1
 40
1
 40
1
 10
38.334225
 20
203.677619
 30
0.0
 10
37.965019
 20
204.052497
 30
0.0
 10
37.796360
 20
204.274733
 30
0.0
 10
37.642216
 20
204.589459
 30
0.0
  0
SPLINE
  5
186
100
AcDbEntity
  8
logo
 62
7
100
AcDbSpline
 70
8
 71
3
 72
8
 73
4
 74
0
 40
0
 40
0
 40
0
 40
0
 40
1
 40
1
 40
1
 40
1
 10
37.642216
 20
204.589459
 30
0.0
 10
37.408620
 20
205.066409
 30
0.0
 10
37.379704
 20
205.542298
 30
0.0
 10
37.561972
 20
205.910016
 30
0.0
  0
SPLINE
  5
187
100
AcDbEntity
  8
logo
 62
7
100
AcDbSpline
 70
8
 71
3
 72
8
 73
4
 74
0
 40
0
 40
0
 40
0
 40
0
 40
1
 40
1
 40
1
 40
1
 10
37.561972
 20
205.910016
 30
0.0
 10
37.677824
 20
206.143744
 30
0.0
 10
37.786169
 20
206.263522
 30
0.0
 10
38.032117
 20
206.429777
 30
0.0
  0
SPLINE
  5
188
100
AcDbEntity
  8
logo
 62
7
100
AcDbSpline
 70
8
 71
3
 72
8
 73
4
 74
0
 40
0
 40
0
 40
0
 40
0
 40
1
 40
1
 40
1
 40
1
 10
38.032117
 20
206.429777
 30
0.0
 10
38.304848
 20
206.614133
 30
0.0
 10
40.774242
 20
207.924265
 30
0.0
 10
42.713529
 20
208.913490
 30
0.0
  0
SPLINE
  5
189
100
AcDbEntity
  8
logo
 62
7
100
AcDbSpline
 70
8
 71
3
 72
8
 73
4
 74
0
 40
0
 40
0
 40
0
 40
0
 40
1
 40
1
 40
1
 40
1
 10
42.713529
 20
208.913490
 30
0.0
 10
43.209870
 20
209.166672
 30
0.0
 10
43.632890
 20
209.387240
 30
0.0
 10
43.653572
 20
209.403637
 30
0.0
  0
SPLINE
  5
18a
100
AcDbEntity
  8
logo
 62
7
100
AcDbSpline
 70
8
 71
3
 72
8
 73
4
 74
0
 40
0
 40
0
 40
0
 40
0
 40
1
 40
1
 40
1
 40
1
 10
43.653572
 20
209.403637
 30
0.0
 10
43.702746
 20
209.442631
 30
0.0
 10
44.260609
 20
209.688825
 30
0.0
 10
44.988432
 20
209.992733
 30
0.0
  0
SPLINE
  5
18b
100
AcDbEntity
  8
logo
 62
7
100
AcDbSpline
 70
8
 71
3
 72
8
 73
4
 74
0
 40
0
 40
0
 40
0
 40
0
 40
1
 40
1
 40
1
 40
1
 10
44.988432
 20
209.992733
 30
0.0
 10
45.807040
 20
210.334552
 30
0.0
 10
46.959918
 20
210.862124
 30
0.0
 10
48.005136
 20
211.373220
 30
0.0
  0
SPLINE
  5
18c
100
AcDbEntity
  8
logo
 62
7
100
AcDbSpline
 70
8
 71
3
 72
8
 73
4
 74
0
 40
0
 40
0
 40
0
 40
0
 40
1
 40
1
 40
1
 40
1
 10
48.005136
 20
211.373220
 30
0.0
 10
48.495853
 20
211.613171
 30
0.0
 10
49.184131
 20
211.927051
 30
0.0
 10
49.534645
 20
212.070724
 30
0.0
  0
SPLINE
  5
18d
100
AcDbEntity
  8
logo
 62
7
100
AcDbSpline
 70
8
 71
3
 72
8
 73
4
 74
0
 40
0
 40
0
 40
0
 40
0
 40
1
 40
1
 40
1
 40
1
 10
49.534645
 20
212.070724
 30
0.0
 10
49.885160
 20
212.214401
 30
0.0
 10
50.344544
 20
212.418569
 30
0.0
 10
50.555500
 20
212.524430
 30
0.0
  0
SPLINE
  5
18e
100
AcDbEntity
  8
logo
 62
7
100
AcDbSpline
 70
8
 71
3
 72
8
 73
4
 74
0
 40
0
 40
0
 40
0
 40
0
 40
1
 40
1
 40
1
 40
1
 10
50.555500
 20
212.524430
 30
0.0
 10
50.919702
 20
212.707195
 30
0.0
 10
50.983301
 20
212.718712
 30
0.0
 10
51.011415
 20
212.607006
 30
0.0
  0
SPLINE
  5
18f
100
AcDbEntity
  8
logo
 62
7
100
AcDbSpline
 70
8
 71
3
 72
8
 73
4
 74
0
 40
0
 40
0
 40
0
 40
0
 40
1
 40
1
 40
1
 40
1
 10
51.011415
 20
212.607006
 30
0.0
 10
51.024398
 20
212.555415
 30
0.0
 10
50.580044
 20
212.259870
 30
0.0
 10
49.763847
 20
211.777224
 30
0.0
  0
SPLINE
  5
190
100
AcDbEntity
  8
logo
 62
7
100
AcDbSpline
 70
8
 71
3
 72
8
 73
4
 74
0
 40
0
 40
0
 40
0
 40
0
 40
1
 40
1
 40
1
 40
1
 10
49.763847
 20
211.777224
 30
0.0
 10
47.948314
 20
210.703643
 30
0.0
 10
46.601798
 20
209.919037
 30
0.0
 10
46.176483
 20
209.686895
 30
0.0
  0
SPLINE
  5
191
100
AcDbEntity
  8
logo
 62
7
100
AcDbSpline
 70
8
 71
3
 72
8
 73
4
 74
0
 40
0
 40
0
 40
0
 40
0
 40
1
 40
1
 40
1
 40
1
 10
46.176483
 20
209.686895
 30
0.0
 10
45.016454
 20
209.053735
 30
0.0
 10
42.911982
 20
207.795780
 30
0.0
 10
42.299910
 20
207.369661
 30
0.0
  0
SPLINE
  5
192
100
AcDbEntity
  8
logo
 62
7
100
AcDbSpline
 70
8
 71
3
 72
8
 73
4
 74
0
 40
0
 40
0
 40
0
 40
0
 40
1
 40
1
 40
1
 40
1
 10
42.299910
 20
207.369661
 30
0.0
 10
40.436456
 20
206.072339
 30
0.0
 10
39.879685
 20
205.613945
 30
0.0
 10
39.381083
 20
204.966570
 30
0.0
  0
SPLINE
  5
193
100
AcDbEntity
  8
logo
 62
7
100
AcDbSpline
 70
8
 71
3
 72
8
 73
4
 74
0
 40
0
 40
0
 40
0
 40
0
 40
1
 40
1
 40
1
 40
1
 10
39.381083
 20
204.966570
 30
0.0
 10
39.073492
 20
204.567197
 30
0.0
 10
38.845256
 20
203.991377
 30
0.0
 10
38.860527
 20
203.653246
 30
0.0
  0
SPLINE
  5
194
100
AcDbEntity
  8
logo
 62
7
100
AcDbSpline
 70
8
 71
3
 72
8
 73
4
 74
0
 40
0
 40
0
 40
0
 40
0
 40
1
 40
1
 40
1
 40
1
 10
38.860527
 20
203.653246
 30
0.0
 10
38.870630
 20
203.429201
 30
0.0
 10
38.867385
 20
203.423808
 30
0.0
 10
38.721775
 20
203.423808
 30
0.0
  0
SPLINE
  5
195
100
AcDbEntity
  8
logo
 62
7
100
AcDbSpline
 70
8
 71
3
 72
8
 73
4
 74
0
 40
0
 40
0
 40
0
 40
0
 40
1
 40
1
 40
1
 40
1
 10
38.721775
 20
203.423808
 30
0.0
 10
38.601681
 20
203.423808
 30
0.0
 10
38.552428
 20
203.456063
 30
0.0
 10
38.334225
 20
203.677619
 30
0.0
  0
LWPOLYLINE
  5
196
100
AcDbEntity
  8
logo
 62
7
100
AcDbPolyline
 90
2
 70
1
 10
53.221238
 20
191.984224
 30
0.0
 10
53.221230
 20
191.984221
 30
0.0
  0
SPLINE
  5
197
100
AcDbEntity
  8
logo
 62
7
100
AcDbSpline
 70
8
 71
3
 72
8
 73
4
 74
0
 40
0
 40
0
 40
0
 40
0
 40
1
 40
1
 40
1
 40
1
 10
38.770261
 20
203.718657
 30
0.0
 10
38.773083
 20
203.839126
 30
0.0
 10
38.803958
 20
204.037808
 30
0.0
 10
38.839143
 20
204.160171
 30
0.0
  0
SPLINE
  5
198
100
AcDbEntity
  8
logo
 62
7
100
AcDbSpline
 70
8
 71
3
 72
8
 73
4
 74
0
 40
0
 40
0
 40
0
 40
0
 40
1
 40
1
 40
1
 40
1
 10
38.839143
 20
204.160171
 30
0.0
 10
38.899691
 20
204.370742
 30
0.0
 10
39.111801
 20
204.849716
 30
0.0
 10
39.162462
 20
204.890274
 30
0.0
  0
SPLINE
  5
199
100
AcDbEntity
  8
logo
 62
7
100
AcDbSpline
 70
8
 71
3
 72
8
 73
4
 74
0
 40
0
 40
0
 40
0
 40
0
 40
1
 40
1
 40
1
 40
1
 10
39.162462
 20
204.890274
 30
0.0
 10
39.175388
 20
204.900603
 30
0.0
 10
39.249717
 20
204.993677
 30
0.0
 10
39.327655
 20
205.097084
 30
0.0
  0
SPLINE
  5
19a
100
AcDbEntity
  8
logo
 62
7
100
AcDbSpline
 70
8
 71
3
 72
8
 73
4
 74
0
 40
0
 40
0
 40
0
 40
0
 40
1
 40
1
 40
1
 40
1
 10
39.327655
 20
205.097084
 30
0.0
 10
39.513947
 20
205.344240
 30
0.0
 10
39.845228
 20
205.691596
 30
0.0
 10
39.997493
 20
205.799422
 30
0.0
  0
SPLINE
  5
19b
100
AcDbEntity
  8
logo
 62
7
100
AcDbSpline
 70
8
 71
3
 72
8
 73
4
 74
0
 40
0
 40
0
 40
0
 40
0
 40
1
 40
1
 40
1
 40
1
 10
39.997493
 20
205.799422
 30
0.0
 10
40.064329
 20
205.846751
 30
0.0
 10
40.174568
 20
205.940747
 30
0.0
 10
40.242470
 20
206.008303
 30
0.0
  0
SPLINE
  5
19c
100
AcDbEntity
  8
logo
 62
7
100
AcDbSpline
 70
8
 71
3
 72
8
 73
4
 74
0
 40
0
 40
0
 40
0
 40
0
 40
1
 40
1
 40
1
 40
1
 10
40.242470
 20
206.008303
 30
0.0
 10
40.310373
 20
206.075859
 30
0.0
 10
40.374161
 20
206.131129
 30
0.0
 10
40.384219
 20
206.131129
 30
0.0
  0
SPLINE
  5
19d
100
AcDbEntity
  8
logo
 62
7
100
AcDbSpline
 70
8
 71
3
 72
8
 73
4
 74
0
 40
0
 40
0
 40
0
 40
0
 40
1
 40
1
 40
1
 40
1
 10
40.384219
 20
206.131129
 30
0.0
 10
40.394295
 20
206.131129
 30
0.0
 10
40.606653
 20
206.287647
 30
0.0
 10
40.856160
 20
206.478945
 30
0.0
  0
SPLINE
  5
19e
100
AcDbEntity
  8
logo
 62
7
100
AcDbSpline
 70
8
 71
3
 72
8
 73
4
 74
0
 40
0
 40
0
 40
0
 40
0
 40
1
 40
1
 40
1
 40
1
 10
40.856160
 20
206.478945
 30
0.0
 10
41.105667
 20
206.670244
 30
0.0
 10
41.355524
 20
206.854007
 30
0.0
 10
41.411401
 20
206.887307
 30
0.0
  0
SPLINE
  5
19f
100
AcDbEntity
  8
logo
 62
7
100
AcDbSpline
 70
8
 71
3
 72
8
 73
4
 74
0
 40
0
 40
0
 40
0
 40
0
 40
1
 40
1
 40
1
 40
1
 10
41.411401
 20
206.887307
 30
0.0
 10
41.555980
 20
206.973475
 30
0.0
 10
42.284018
 20
207.500632
 30
0.0
 10
42.382067
 20
207.590147
 30
0.0
  0
SPLINE
  5
1a0
100
AcDbEntity
  8
logo
 62
7
100
AcDbSpline
 70
8
 71
3
 72
8
 73
4
 74
0
 40
0
 40
0
 40
0
 40
0
 40
1
 40
1
 40
1
 40
1
 10
42.382067
 20
207.590147
 30
0.0
 10
42.427254
 20
207.631403
 30
0.0
 10
42.473338
 20
207.656046
 30
0.0
 10
42.484475
 20
207.644910
 30
0.0
  0
SPLINE
  5
1a1
100
AcDbEntity
  8
logo
 62
7
100
AcDbSpline
 70
8
 71
3
 72
8
 73
4
 74
0
 40
0
 40
0
 40
0
 40
0
 40
1
 40
1
 40
1
 40
1
 10
42.484475
 20
207.644910
 30
0.0
 10
42.495622
 20
207.633762
 30
0.0
 10
42.594005
 20
207.683715
 30
0.0
 10
42.703129
 20
207.755888
 30
0.0
  0
SPLINE
  5
1a2
100
AcDbEntity
  8
logo
 62
7
100
AcDbSpline
 70
8
 71
3
 72
8
 73
4
 74
0
 40
0
 40
0
 40
0
 40
0
 40
1
 40
1
 40
1
 40
1
 10
42.703129
 20
207.755888
 30
0.0
 10
43.151131
 20
208.052193
 30
0.0
 10
44.249371
 20
208.720803
 30
0.0
 10
44.856826
 20
209.067064
 30
0.0
  0
SPLINE
  5
1a3
100
AcDbEntity
  8
logo
 62
7
100
AcDbSpline
 70
8
 71
3
 72
8
 73
4
 74
0
 40
0
 40
0
 40
0
 40
0
 40
1
 40
1
 40
1
 40
1
 10
44.856826
 20
209.067064
 30
0.0
 10
44.980911
 20
209.137798
 30
0.0
 10
45.111100
 20
209.212589
 30
0.0
 10
45.146135
 20
209.233270
 30
0.0
  0
SPLINE
  5
1a4
100
AcDbEntity
  8
logo
 62
7
100
AcDbSpline
 70
8
 71
3
 72
8
 73
4
 74
0
 40
0
 40
0
 40
0
 40
0
 40
1
 40
1
 40
1
 40
1
 10
45.146135
 20
209.233270
 30
0.0
 10
45.181170
 20
209.253957
 30
0.0
 10
45.426520
 20
209.390956
 30
0.0
 10
45.691360
 20
209.537726
 30
0.0
  0
SPLINE
  5
1a5
100
AcDbEntity
  8
logo
 62
7
100
AcDbSpline
 70
8
 71
3
 72
8
 73
4
 74
0
 40
0
 40
0
 40
0
 40
0
 40
1
 40
1
 40
1
 40
1
 10
45.691360
 20
209.537726
 30
0.0
 10
46.145583
 20
209.789449
 30
0.0
 10
47.056201
 20
210.313171
 30
0.0
 10
47.570475
 20
210.618454
 30
0.0
  0
SPLINE
  5
1a6
100
AcDbEntity
  8
logo
 62
7
100
AcDbSpline
 70
8
 71
3
 72
8
 73
4
 74
0
 40
0
 40
0
 40
0
 40
0
 40
1
 40
1
 40
1
 40
1
 10
47.570475
 20
210.618454
 30
0.0
 10
47.698039
 20
210.694180
 30
0.0
 10
47.819304
 20
210.756139
 30
0.0
 10
47.839952
 20
210.756139
 30
0.0
  0
SPLINE
  5
1a7
100
AcDbEntity
  8
logo
 62
7
100
AcDbSpline
 70
8
 71
3
 72
8
 73
4
 74
0
 40
0
 40
0
 40
0
 40
0
 40
1
 40
1
 40
1
 40
1
 10
47.839952
 20
210.756139
 30
0.0
 10
47.860610
 20
210.756139
 30
0.0
 10
47.883135
 20
210.770673
 30
0.0
 10
47.890029
 20
210.788456
 30
0.0
  0
SPLINE
  5
1a8
100
AcDbEntity
  8
logo
 62
7
100
AcDbSpline
 70
8
 71
3
 72
8
 73
4
 74
0
 40
0
 40
0
 40
0
 40
0
 40
1
 40
1
 40
1
 40
1
 10
47.890029
 20
210.788456
 30
0.0
 10
47.896915
 20
210.806236
 30
0.0
 10
48.021009
 20
210.888109
 30
0.0
 10
48.165774
 20
210.970402
 30
0.0
  0
SPLINE
  5
1a9
100
AcDbEntity
  8
logo
 62
7
100
AcDbSpline
 70
8
 71
3
 72
8
 73
4
 74
0
 40
0
 40
0
 40
0
 40
0
 40
1
 40
1
 40
1
 40
1
 10
48.165774
 20
210.970402
 30
0.0
 10
48.310540
 20
211.052698
 30
0.0
 10
48.706210
 20
211.283505
 30
0.0
 10
49.045038
 20
211.483307
 30
0.0
  0
SPLINE
  5
1aa
100
AcDbEntity
  8
logo
 62
7
100
AcDbSpline
 70
8
 71
3
 72
8
 73
4
 74
0
 40
0
 40
0
 40
0
 40
0
 40
1
 40
1
 40
1
 40
1
 10
49.045038
 20
211.483307
 30
0.0
 10
49.383865
 20
211.683112
 30
0.0
 10
49.673126
 20
211.846586
 30
0.0
 10
49.687838
 20
211.846586
 30
0.0
  0
SPLINE
  5
1ab
100
AcDbEntity
  8
logo
 62
7
100
AcDbSpline
 70
8
 71
3
 72
8
 73
4
 74
0
 40
0
 40
0
 40
0
 40
0
 40
1
 40
1
 40
1
 40
1
 10
49.687838
 20
211.846586
 30
0.0
 10
49.702542
 20
211.846586
 30
0.0
 10
49.745214
 20
211.880427
 30
0.0
 10
49.782648
 20
211.921790
 30
0.0
  0
SPLINE
  5
1ac
100
AcDbEntity
  8
logo
 62
7
100
AcDbSpline
 70
8
 71
3
 72
8
 73
4
 74
0
 40
0
 40
0
 40
0
 40
0
 40
1
 40
1
 40
1
 40
1
 10
49.782648
 20
211.921790
 30
0.0
 10
49.820079
 20
211.963152
 30
0.0
 10
49.865520
 20
211.996994
 30
0.0
 10
49.883630
 20
211.996994
 30
0.0
  0
SPLINE
  5
1ad
100
AcDbEntity
  8
logo
 62
7
100
AcDbSpline
 70
8
 71
3
 72
8
 73
4
 74
0
 40
0
 40
0
 40
0
 40
0
 40
1
 40
1
 40
1
 40
1
 10
49.883630
 20
211.996994
 30
0.0
 10
49.921891
 20
211.996994
 30
0.0
 10
50.440677
 20
212.302223
 30
0.0
 10
50.440677
 20
212.324733
 30
0.0
  0
SPLINE
  5
1ae
100
AcDbEntity
  8
logo
 62
7
100
AcDbSpline
 70
8
 71
3
 72
8
 73
4
 74
0
 40
0
 40
0
 40
0
 40
0
 40
1
 40
1
 40
1
 40
1
 10
50.440677
 20
212.324733
 30
0.0
 10
50.440677
 20
212.333058
 30
0.0
 10
50.427977
 20
212.332409
 30
0.0
 10
50.412483
 20
212.323322
 30
0.0
  0
SPLINE
  5
1af
100
AcDbEntity
  8
logo
 62
7
100
AcDbSpline
 70
8
 71
3
 72
8
 73
4
 74
0
 40
0
 40
0
 40
0
 40
0
 40
1
 40
1
 40
1
 40
1
 10
50.412483
 20
212.323322
 30
0.0
 10
50.351089
 20
212.287273
 30
0.0
 10
50.005336
 20
212.136352
 30
0.0
 10
49.878973
 20
212.090443
 30
0.0
  0
SPLINE
  5
1b0
100
AcDbEntity
  8
logo
 62
7
100
AcDbSpline
 70
8
 71
3
 72
8
 73
4
 74
0
 40
0
 40
0
 40
0
 40
0
 40
1
 40
1
 40
1
 40
1
 10
49.878973
 20
212.090443
 30
0.0
 10
49.805316
 20
212.063688
 30
0.0
 10
49.643530
 20
211.994996
 30
0.0
 10
49.519445
 20
211.937803
 30
0.0
  0
SPLINE
  5
1b1
100
AcDbEntity
  8
logo
 62
7
100
AcDbSpline
 70
8
 71
3
 72
8
 73
4
 74
0
 40
0
 40
0
 40
0
 40
0
 40
1
 40
1
 40
1
 40
1
 10
49.519445
 20
211.937803
 30
0.0
 10
49.395357
 20
211.880611
 30
0.0
 10
49.276912
 20
211.831499
 30
0.0
 10
49.256233
 20
211.828668
 30
0.0
  0
SPLINE
  5
1b2
100
AcDbEntity
  8
logo
 62
7
100
AcDbSpline
 70
8
 71
3
 72
8
 73
4
 74
0
 40
0
 40
0
 40
0
 40
0
 40
1
 40
1
 40
1
 40
1
 10
49.256233
 20
211.828668
 30
0.0
 10
49.184518
 20
211.818847
 30
0.0
 10
49.164480
 20
211.809420
 30
0.0
 10
47.338544
 20
210.925227
 30
0.0
  0
SPLINE
  5
1b3
100
AcDbEntity
  8
logo
 62
7
100
AcDbSpline
 70
8
 71
3
 72
8
 73
4
 74
0
 40
0
 40
0
 40
0
 40
0
 40
1
 40
1
 40
1
 40
1
 10
47.338544
 20
210.925227
 30
0.0
 10
46.465205
 20
210.502322
 30
0.0
 10
45.590446
 20
210.114027
 30
0.0
 10
44.631223
 20
209.723485
 30
0.0
  0
SPLINE
  5
1b4
100
AcDbEntity
  8
logo
 62
7
100
AcDbSpline
 70
8
 71
3
 72
8
 73
4
 74
0
 40
0
 40
0
 40
0
 40
0
 40
1
 40
1
 40
1
 40
1
 10
44.631223
 20
209.723485
 30
0.0
 10
44.092233
 20
209.504034
 30
0.0
 10
43.665270
 20
209.290164
 30
0.0
 10
41.378677
 20
208.094241
 30
0.0
  0
SPLINE
  5
1b5
100
AcDbEntity
  8
logo
 62
7
100
AcDbSpline
 70
8
 71
3
 72
8
 73
4
 74
0
 40
0
 40
0
 40
0
 40
0
 40
1
 40
1
 40
1
 40
1
 10
41.378677
 20
208.094241
 30
0.0
 10
41.120164
 20
207.959034
 30
0.0
 10
40.807132
 20
207.798605
 30
0.0
 10
40.683047
 20
207.737730
 30
0.0
  0
SPLINE
  5
1b6
100
AcDbEntity
  8
logo
 62
7
100
AcDbSpline
 70
8
 71
3
 72
8
 73
4
 74
0
 40
0
 40
0
 40
0
 40
0
 40
1
 40
1
 40
1
 40
1
 10
40.683047
 20
207.737730
 30
0.0
 10
40.558960
 20
207.676854
 30
0.0
 10
40.448975
 20
207.613925
 30
0.0
 10
40.438634
 20
207.597886
 30
0.0
  0
SPLINE
  5
1b7
100
AcDbEntity
  8
logo
 62
7
100
AcDbSpline
 70
8
 71
3
 72
8
 73
4
 74
0
 40
0
 40
0
 40
0
 40
0
 40
1
 40
1
 40
1
 40
1
 10
40.438634
 20
207.597886
 30
0.0
 10
40.428305
 20
207.581856
 30
0.0
 10
40.394453
 20
207.562540
 30
0.0
 10
40.363431
 20
207.554977
 30
0.0
  0
SPLINE
  5
1b8
100
AcDbEntity
  8
logo
 62
7
100
AcDbSpline
 70
8
 71
3
 72
8
 73
4
 74
0
 40
0
 40
0
 40
0
 40
0
 40
1
 40
1
 40
1
 40
1
 10
40.363431
 20
207.554977
 30
0.0
 10
40.224247
 20
207.521045
 30
0.0
 10
39.167658
 20
206.939114
 30
0.0
 10
39.187360
 20
206.907237
 30
0.0
  0
SPLINE
  5
1b9
100
AcDbEntity
  8
logo
 62
7
100
AcDbSpline
 70
8
 71
3
 72
8
 73
4
 74
0
 40
0
 40
0
 40
0
 40
0
 40
1
 40
1
 40
1
 40
1
 10
39.187360
 20
206.907237
 30
0.0
 10
39.199467
 20
206.887623
 30
0.0
 10
39.191904
 20
206.882402
 30
0.0
 10
39.170511
 20
206.895610
 30
0.0
  0
SPLINE
  5
1ba
100
AcDbEntity
  8
logo
 62
7
100
AcDbSpline
 70
8
 71
3
 72
8
 73
4
 74
0
 40
0
 40
0
 40
0
 40
0
 40
1
 40
1
 40
1
 40
1
 10
39.170511
 20
206.895610
 30
0.0
 10
39.149119
 20
206.908818
 30
0.0
 10
39.049212
 20
206.874979
 30
0.0
 10
38.948490
 20
206.820395
 30
0.0
  0
SPLINE
  5
1bb
100
AcDbEntity
  8
logo
 62
7
100
AcDbSpline
 70
8
 71
3
 72
8
 73
4
 74
0
 40
0
 40
0
 40
0
 40
0
 40
1
 40
1
 40
1
 40
1
 10
38.948490
 20
206.820395
 30
0.0
 10
38.847770
 20
206.765804
 30
0.0
 10
38.663502
 20
206.667210
 30
0.0
 10
38.539008
 20
206.601294
 30
0.0
  0
SPLINE
  5
1bc
100
AcDbEntity
  8
logo
 62
7
100
AcDbSpline
 70
8
 71
3
 72
8
 73
4
 74
0
 40
0
 40
0
 40
0
 40
0
 40
1
 40
1
 40
1
 40
1
 10
38.539008
 20
206.601294
 30
0.0
 10
38.179849
 20
206.411127
 30
0.0
 10
38.025609
 20
206.302091
 30
0.0
 10
37.839481
 20
206.106776
 30
0.0
  0
SPLINE
  5
1bd
100
AcDbEntity
  8
logo
 62
7
100
AcDbSpline
 70
8
 71
3
 72
8
 73
4
 74
0
 40
0
 40
0
 40
0
 40
0
 40
1
 40
1
 40
1
 40
1
 10
37.839481
 20
206.106776
 30
0.0
 10
37.416765
 20
205.663193
 30
0.0
 10
37.443926
 20
205.022168
 30
0.0
 10
37.914134
 20
204.345077
 30
0.0
  0
SPLINE
  5
1be
100
AcDbEntity
  8
logo
 62
7
100
AcDbSpline
 70
8
 71
3
 72
8
 73
4
 74
0
 40
0
 40
0
 40
0
 40
0
 40
1
 40
1
 40
1
 40
1
 10
37.914134
 20
204.345077
 30
0.0
 10
38.119248
 20
204.049715
 30
0.0
 10
38.516786
 20
203.623359
 30
0.0
 10
38.646913
 20
203.559176
 30
0.0
  0
SPLINE
  5
1bf
100
AcDbEntity
  8
logo
 62
7
100
AcDbSpline
 70
8
 71
3
 72
8
 73
4
 74
0
 40
0
 40
0
 40
0
 40
0
 40
1
 40
1
 40
1
 40
1
 10
38.646913
 20
203.559176
 30
0.0
 10
38.712061
 20
203.527042
 30
0.0
 10
38.765361
 20
203.500505
 30
0.0
 10
38.765361
 20
203.500200
 30
0.0
  0
SPLINE
  5
1c0
100
AcDbEntity
  8
logo
 62
7
100
AcDbSpline
 70
8
 71
3
 72
8
 73
4
 74
0
 40
0
 40
0
 40
0
 40
0
 40
1
 40
1
 40
1
 40
1
 10
38.765361
 20
203.500200
 30
0.0
 10
38.765361
 20
203.499918
 30
0.0
 10
38.767619
 20
203.598216
 30
0.0
 10
38.770272
 20
203.718685
 30
0.0
  0
LWPOLYLINE
  5
1c1
100
AcDbEntity
  8
logo
 62
7
100
AcDbPolyline
 90
2
 70
1
 10
38.334225
 20
203.677619
 30
0.0
 10
38.334225
 20
203.677619
 30
0.0
  0
LWPOLYLINE
  5
1c2
100
AcDbEntity
  8
logo
 62
7
100
AcDbPolyline
 90
2
 70
1
 10
38.770272
 20
203.718685
 30
0.0
 10
38.770261
 20
203.718657
 30
0.0
  0
ENDSEC
  0
SECTION
  2
OBJECTS
  0
DICTIONARY
  5
C
330
0
100
AcDbDictionary
  3
ACAD_GROUP
350
D
  3
ACAD_MLINESTYLE
350
17
  0
DICTIONARY
  5
D
330
C
100
AcDbDictionary
  0
DICTIONARY
  5
1A
330
C
100
AcDbDictionary
  0
DICTIONARY
  5
17
330
C
100
AcDbDictionary
  3
STANDARD
350
18
  0
DICTIONARY
  5
19
330
C
100
AcDbDictionary
  0
ENDSEC
  0
EOF
