  0
SECTION
  2
HEADER
  9
$ACADVER
  1
AC1014
  9
$HANDSEED
  5
FFFF
  9
$MEASUREMENT
 70
     1
  0
ENDSEC
  0
SECTION
  2
TABLES
  0
TABLE
  2
VPORT
  5
8
330
0
100
AcDbSymbolTable
 70
     4
  0
VPORT
  5
2E
330
8
100
AcDbSymbolTableRecord
100
AcDbViewportTableRecord
  2
*ACTIVE
 70
     0
 10
0.0
 20
0.0
 11
1.0
 21
1.0
 12
210.0
 22
148.5
 13
0.0
 23
0.0
 14
10.0
 24
10.0
 15
10.0
 25
10.0
 16
0.0
 26
0.0
 36
1.0
 17
0.0
 27
0.0
 37
0.0
 40
341.0
 41
1.24
 42
50.0
 43
0.0
 44
0.0
 50
0.0
 51
0.0
 71
     0
 72
   100
 73
     1
 74
     3
 75
     0
 76
     0
 77
     0
 78
     0
  0
ENDTAB
  0
TABLE
  2
LTYPE
  5
5
330
0
100
AcDbSymbolTable
 70
     1
  0
LTYPE
  5
14
330
5
100
AcDbSymbolTableRecord
100
AcDbLinetypeTableRecord
  2
BYBLOCK
 70
     0
  3

 72
    65
 73
     0
 40
0.0
  0
LTYPE
  5
15
330
5
100
AcDbSymbolTableRecord
100
AcDbLinetypeTableRecord
  2
BYLAYER
 70
     0
  3

 72
    65
 73
     0
 40
0.0
  0
LTYPE
  5
16
330
5
100
AcDbSymbolTableRecord
100
AcDbLinetypeTableRecord
  2
CONTINUOUS
 70
     0
  3
Solid line
 72
    65
 73
     0
 40
0.0
  0
ENDTAB
  0
TABLE
  2
LAYER
  5
2
100
AcDbSymbolTable
 70
4
  0
LAYER
  5
50
100
AcDbSymbolTableRecord
100
AcDbLayerTableRecord
  2
0
 70
0
  6
CONTINUOUS
  0
LAYER
  5
51
100
AcDbSymbolTableRecord
100
AcDbLayerTableRecord
  2
Layer_1
 70
0
  6
CONTINUOUS
  0
LAYER
  5
52
100
AcDbSymbolTableRecord
100
AcDbLayerTableRecord
  2
logo
 70
0
  6
CONTINUOUS
  0
LAYER
  5
53
100
AcDbSymbolTableRecord
100
AcDbLayerTableRecord
  2
Layer
 70
0
  6
CONTINUOUS
  0
ENDTAB
  0
TABLE
  2
STYLE
  5
3
330
0
100
AcDbSymbolTable
 70
     1
  0
STYLE
  5
11
330
3
100
AcDbSymbolTableRecord
100
AcDbTextStyleTableRecord
  2
STANDARD
 70
     0
 40
0.0
 41
1.0
 50
0.0
 71
     0
 42
2.5
  3
txt
  4

  0
ENDTAB
  0
TABLE
  2
VIEW
  5
6
330
0
100
AcDbSymbolTable
 70
     0
  0
ENDTAB
  0
TABLE
  2
UCS
  5
7
330
0
100
AcDbSymbolTable
 70
     0
  0
ENDTAB
  0
TABLE
  2
APPID
  5
9
330
0
100
AcDbSymbolTable
 70
     2
  0
APPID
  5
12
330
9
100
AcDbSymbolTableRecord
100
AcDbRegAppTableRecord
  2
ACAD
 70
     0
  0
ENDTAB
  0
TABLE
  2
DIMSTYLE
  5
A
330
0
100
AcDbSymbolTable
 70
     1
  0
DIMSTYLE
105
27
330
A
100
AcDbSymbolTableRecord
100
AcDbDimStyleTableRecord
  2
ISO-25
 70
     0
  3

  4

  5

  6

  7

 40
1.0
 41
2.5
 42
0.625
 43
3.75
 44
1.25
 45
0.0
 46
0.0
 47
0.0
 48
0.0
140
2.5
141
2.5
142
0.0
143
0.03937007874016
144
1.0
145
0.0
146
1.0
147
0.625
 71
     0
 72
     0
 73
     0
 74
     0
 75
     0
 76
     0
 77
     1
 78
     8
170
     0
171
     3
172
     1
173
     0
174
     0
175
     0
176
     0
177
     0
178
     0
270
     2
271
     2
272
     2
273
     2
274
     3
340
11
275
     0
280
     0
281
     0
282
     0
283
     0
284
     8
285
     0
286
     0
287
     3
288
     0
  0
ENDTAB
  0
TABLE
  2
BLOCK_RECORD
  5
1
330
0
100
AcDbSymbolTable
 70
     1
  0
BLOCK_RECORD
  5
1F
330
1
100
AcDbSymbolTableRecord
100
AcDbBlockTableRecord
  2
*MODEL_SPACE
  0
BLOCK_RECORD
  5
1B
330
1
100
AcDbSymbolTableRecord
100
AcDbBlockTableRecord
  2
*PAPER_SPACE
  0
ENDTAB
  0
ENDSEC
  0
SECTION
  2
BLOCKS
  0
BLOCK
  5
20
330
1F
100
AcDbEntity
  8
0
100
AcDbBlockBegin
  2
*MODEL_SPACE
 70
     0
 10
0.0
 20
0.0
 30
0.0
  3
*MODEL_SPACE
  1

  0
ENDBLK
  5
21
330
1F
100
AcDbEntity
  8
0
100
AcDbBlockEnd
  0
BLOCK
  5
1C
330
1B
100
AcDbEntity
 67
     1
  8
0
100
AcDbBlockBegin
  2
*PAPER_SPACE
  1

  0
ENDBLK
  5
1D
330
1B
100
AcDbEntity
 67
     1
  8
0
100
AcDbBlockEnd
  0
ENDSEC
  0
SECTION
  2
ENTITIES
  0
LWPOLYLINE
  5
100
100
AcDbEntity
  8
Layer_1
 62
7
100
AcDbPolyline
 90
5
 70
1
 10
10.141111
 20
130.141116
 30
0.0
 10
70.141110
 20
130.141116
 30
0.0
 10
70.141110
 20
30.141113
 30
0.0
 10
10.141111
 20
30.141113
 30
0.0
 10
10.141111
 20
130.141116
 30
0.0
  0
LWPOLYLINE
  5
101
100
AcDbEntity
  8
Layer_1
 62
7
100
AcDbPolyline
 90
5
 70
1
 10
90.141112
 20
130.141116
 30
0.0
 10
150.141110
 20
130.141116
 30
0.0
 10
150.141110
 20
30.141113
 30
0.0
 10
90.141112
 20
30.141113
 30
0.0
 10
90.141112
 20
130.141116
 30
0.0
  0
LWPOLYLINE
  5
102
100
AcDbEntity
  8
Layer_1
 62
7
100
AcDbPolyline
 90
5
 70
1
 10
10.141111
 20
260.141110
 30
0.0
 10
64.141110
 20
260.141110
 30
0.0
 10
64.141110
 20
160.141107
 30
0.0
 10
10.141111
 20
160.141107
 30
0.0
 10
10.141111
 20
260.141110
 30
0.0
  0
SPLINE
  5
103
100
AcDbEntity
  8
logo
 62
7
100
AcDbSpline
 70
8
 71
3
 72
8
 73
4
 74
0
 40
0
 40
0
 40
0
 40
0
 40
1
 40
1
 40
1
 40
1
 10
46.142693
 20
75.059173
 30
0.0
 10
46.070678
 20
75.138748
 30
0.0
 10
45.651344
 20
75.435562
 30
0.0
 10
44.256873
 20
76.393991
 30
0.0
  0
SPLINE
  5
104
100
AcDbEntity
  8
logo
 62
7
100
AcDbSpline
 70
8
 71
3
 72
8
 73
4
 74
0
 40
0
 40
0
 40
0
 40
0
 40
1
 40
1
 40
1
 40
1
 10
44.256873
 20
76.393991
 30
0.0
 10
43.182131
 20
77.132668
 30
0.0
 10
43.093442
 20
77.195999
 30
0.0
 10
42.376787
 20
77.736542
 30
0.0
  0
SPLINE
  5
105
100
AcDbEntity
  8
logo
 62
7
100
AcDbSpline
 70
8
 71
3
 72
8
 73
4
 74
0
 40
0
 40
0
 40
0
 40
0
 40
1
 40
1
 40
1
 40
1
 10
42.376787
 20
77.736542
 30
0.0
 10
42.087255
 20
77.954926
 30
0.0
 10
41.291978
 20
78.503848
 30
0.0
 10
40.609509
 20
78.956371
 30
0.0
  0
SPLINE
  5
106
100
AcDbEntity
  8
logo
 62
7
100
AcDbSpline
 70
8
 71
3
 72
8
 73
4
 74
0
 40
0
 40
0
 40
0
 40
0
 40
1
 40
1
 40
1
 40
1
 10
40.609509
 20
78.956371
 30
0.0
 10
38.770975
 20
80.175436
 30
0.0
 10
37.987182
 20
80.742688
 30
0.0
 10
36.454520
 20
81.963429
 30
0.0
  0
SPLINE
  5
107
100
AcDbEntity
  8
logo
 62
7
100
AcDbSpline
 70
8
 71
3
 72
8
 73
4
 74
0
 40
0
 40
0
 40
0
 40
0
 40
1
 40
1
 40
1
 40
1
 10
36.454520
 20
81.963429
 30
0.0
 10
36.009882
 20
82.317582
 30
0.0
 10
35.493974
 20
82.725178
 30
0.0
 10
35.308060
 20
82.869207
 30
0.0
  0
SPLINE
  5
108
100
AcDbEntity
  8
logo
 62
7
100
AcDbSpline
 70
8
 71
3
 72
8
 73
4
 74
0
 40
0
 40
0
 40
0
 40
0
 40
1
 40
1
 40
1
 40
1
 10
35.308060
 20
82.869207
 30
0.0
 10
34.696849
 20
83.342709
 30
0.0
 10
34.150514
 20
83.921075
 30
0.0
 10
33.888559
 20
84.371928
 30
0.0
  0
SPLINE
  5
109
100
AcDbEntity
  8
logo
 62
7
100
AcDbSpline
 70
8
 71
3
 72
8
 73
4
 74
0
 40
0
 40
0
 40
0
 40
0
 40
1
 40
1
 40
1
 40
1
 10
33.888559
 20
84.371928
 30
0.0
 10
33.572521
 20
84.915869
 30
0.0
 10
33.496160
 20
85.230428
 30
0.0
 10
33.559956
 20
85.725590
 30
0.0
  0
SPLINE
  5
10a
100
AcDbEntity
  8
logo
 62
7
100
AcDbSpline
 70
8
 71
3
 72
8
 73
4
 74
0
 40
0
 40
0
 40
0
 40
0
 40
1
 40
1
 40
1
 40
1
 10
33.559956
 20
85.725590
 30
0.0
 10
33.656343
 20
86.473741
 30
0.0
 10
33.920357
 20
86.905869
 30
0.0
 10
34.539089
 20
87.328214
 30
0.0
  0
SPLINE
  5
10b
100
AcDbEntity
  8
logo
 62
7
100
AcDbSpline
 70
8
 71
3
 72
8
 73
4
 74
0
 40
0
 40
0
 40
0
 40
0
 40
1
 40
1
 40
1
 40
1
 10
34.539089
 20
87.328214
 30
0.0
 10
34.655193
 20
87.407465
 30
0.0
 10
34.909464
 20
87.592975
 30
0.0
 10
35.104132
 20
87.740456
 30
0.0
  0
SPLINE
  5
10c
100
AcDbEntity
  8
logo
 62
7
100
AcDbSpline
 70
8
 71
3
 72
8
 73
4
 74
0
 40
0
 40
0
 40
0
 40
0
 40
1
 40
1
 40
1
 40
1
 10
35.104132
 20
87.740456
 30
0.0
 10
36.761451
 20
88.996035
 30
0.0
 10
37.209123
 20
89.314963
 30
0.0
 10
38.052592
 20
89.840980
 30
0.0
  0
SPLINE
  5
10d
100
AcDbEntity
  8
logo
 62
7
100
AcDbSpline
 70
8
 71
3
 72
8
 73
4
 74
0
 40
0
 40
0
 40
0
 40
0
 40
1
 40
1
 40
1
 40
1
 10
38.052592
 20
89.840980
 30
0.0
 10
38.362805
 20
90.034437
 30
0.0
 10
38.675841
 20
90.231330
 30
0.0
 10
38.748225
 20
90.278517
 30
0.0
  0
SPLINE
  5
10e
100
AcDbEntity
  8
logo
 62
7
100
AcDbSpline
 70
8
 71
3
 72
8
 73
4
 74
0
 40
0
 40
0
 40
0
 40
0
 40
1
 40
1
 40
1
 40
1
 10
38.748225
 20
90.278517
 30
0.0
 10
38.820606
 20
90.325705
 30
0.0
 10
38.930591
 20
90.385745
 30
0.0
 10
38.992635
 20
90.411943
 30
0.0
  0
SPLINE
  5
10f
100
AcDbEntity
  8
logo
 62
7
100
AcDbSpline
 70
8
 71
3
 72
8
 73
4
 74
0
 40
0
 40
0
 40
0
 40
0
 40
1
 40
1
 40
1
 40
1
 10
38.992635
 20
90.411943
 30
0.0
 10
39.090470
 20
90.453255
 30
0.0
 10
39.524522
 20
90.716100
 30
0.0
 10
39.951479
 20
90.992579
 30
0.0
  0
SPLINE
  5
110
100
AcDbEntity
  8
logo
 62
7
100
AcDbSpline
 70
8
 71
3
 72
8
 73
4
 74
0
 40
0
 40
0
 40
0
 40
0
 40
1
 40
1
 40
1
 40
1
 10
39.951479
 20
90.992579
 30
0.0
 10
40.253325
 20
91.188043
 30
0.0
 10
41.428295
 20
91.876815
 30
0.0
 10
41.540661
 20
91.924164
 30
0.0
  0
SPLINE
  5
111
100
AcDbEntity
  8
logo
 62
7
100
AcDbSpline
 70
8
 71
3
 72
8
 73
4
 74
0
 40
0
 40
0
 40
0
 40
0
 40
1
 40
1
 40
1
 40
1
 10
41.540661
 20
91.924164
 30
0.0
 10
41.673501
 20
91.980139
 30
0.0
 10
41.973444
 20
92.156836
 30
0.0
 10
42.696401
 20
92.605005
 30
0.0
  0
SPLINE
  5
112
100
AcDbEntity
  8
logo
 62
7
100
AcDbSpline
 70
8
 71
3
 72
8
 73
4
 74
0
 40
0
 40
0
 40
0
 40
0
 40
1
 40
1
 40
1
 40
1
 10
42.696401
 20
92.605005
 30
0.0
 10
43.405425
 20
93.044538
 30
0.0
 10
45.911917
 20
94.430382
 30
0.0
 10
45.997848
 20
94.430382
 30
0.0
  0
SPLINE
  5
113
100
AcDbEntity
  8
logo
 62
7
100
AcDbSpline
 70
8
 71
3
 72
8
 73
4
 74
0
 40
0
 40
0
 40
0
 40
0
 40
1
 40
1
 40
1
 40
1
 10
45.997848
 20
94.430382
 30
0.0
 10
46.022655
 20
94.430382
 30
0.0
 10
46.042953
 20
94.406054
 30
0.0
 10
46.042953
 20
94.376330
 30
0.0
  0
SPLINE
  5
114
100
AcDbEntity
  8
logo
 62
7
100
AcDbSpline
 70
8
 71
3
 72
8
 73
4
 74
0
 40
0
 40
0
 40
0
 40
0
 40
1
 40
1
 40
1
 40
1
 10
46.042953
 20
94.376330
 30
0.0
 10
46.042953
 20
94.319290
 30
0.0
 10
45.895940
 20
94.185542
 30
0.0
 10
45.253317
 20
93.657936
 30
0.0
  0
SPLINE
  5
115
100
AcDbEntity
  8
logo
 62
7
100
AcDbSpline
 70
8
 71
3
 72
8
 73
4
 74
0
 40
0
 40
0
 40
0
 40
0
 40
1
 40
1
 40
1
 40
1
 10
45.253317
 20
93.657936
 30
0.0
 10
45.036167
 20
93.479654
 30
0.0
 10
44.680830
 20
93.168851
 30
0.0
 10
44.463682
 20
92.967265
 30
0.0
  0
SPLINE
  5
116
100
AcDbEntity
  8
logo
 62
7
100
AcDbSpline
 70
8
 71
3
 72
8
 73
4
 74
0
 40
0
 40
0
 40
0
 40
0
 40
1
 40
1
 40
1
 40
1
 10
44.463682
 20
92.967265
 30
0.0
 10
43.899074
 20
92.443125
 30
0.0
 10
43.814582
 20
92.371249
 30
0.0
 10
43.360560
 20
92.028851
 30
0.0
  0
SPLINE
  5
117
100
AcDbEntity
  8
logo
 62
7
100
AcDbSpline
 70
8
 71
3
 72
8
 73
4
 74
0
 40
0
 40
0
 40
0
 40
0
 40
1
 40
1
 40
1
 40
1
 10
43.360560
 20
92.028851
 30
0.0
 10
42.700008
 20
91.530701
 30
0.0
 10
42.174089
 20
91.065308
 30
0.0
 10
41.098811
 20
90.027396
 30
0.0
  0
SPLINE
  5
118
100
AcDbEntity
  8
logo
 62
7
100
AcDbSpline
 70
8
 71
3
 72
8
 73
4
 74
0
 40
0
 40
0
 40
0
 40
0
 40
1
 40
1
 40
1
 40
1
 10
41.098811
 20
90.027396
 30
0.0
 10
40.850377
 20
89.787589
 30
0.0
 10
40.257933
 20
89.227502
 30
0.0
 10
39.782270
 20
88.782754
 30
0.0
  0
SPLINE
  5
119
100
AcDbEntity
  8
logo
 62
7
100
AcDbSpline
 70
8
 71
3
 72
8
 73
4
 74
0
 40
0
 40
0
 40
0
 40
0
 40
1
 40
1
 40
1
 40
1
 10
39.782270
 20
88.782754
 30
0.0
 10
39.306610
 20
88.338008
 30
0.0
 10
38.782066
 20
87.824897
 30
0.0
 10
38.616619
 20
87.642508
 30
0.0
  0
SPLINE
  5
11a
100
AcDbEntity
  8
logo
 62
7
100
AcDbSpline
 70
8
 71
3
 72
8
 73
4
 74
0
 40
0
 40
0
 40
0
 40
0
 40
1
 40
1
 40
1
 40
1
 10
38.616619
 20
87.642508
 30
0.0
 10
38.247636
 20
87.235747
 30
0.0
 10
38.284441
 20
87.272159
 30
0.0
 10
37.992993
 20
87.025573
 30
0.0
  0
SPLINE
  5
11b
100
AcDbEntity
  8
logo
 62
7
100
AcDbSpline
 70
8
 71
3
 72
8
 73
4
 74
0
 40
0
 40
0
 40
0
 40
0
 40
1
 40
1
 40
1
 40
1
 10
37.992993
 20
87.025573
 30
0.0
 10
37.860326
 20
86.913328
 30
0.0
 10
37.624873
 20
86.692006
 30
0.0
 10
37.469767
 20
86.533747
 30
0.0
  0
SPLINE
  5
11c
100
AcDbEntity
  8
logo
 62
7
100
AcDbSpline
 70
8
 71
3
 72
8
 73
4
 74
0
 40
0
 40
0
 40
0
 40
0
 40
1
 40
1
 40
1
 40
1
 10
37.469767
 20
86.533747
 30
0.0
 10
37.232542
 20
86.291705
 30
0.0
 10
37.150757
 20
86.171834
 30
0.0
 10
36.954799
 20
85.778989
 30
0.0
  0
SPLINE
  5
11d
100
AcDbEntity
  8
logo
 62
7
100
AcDbSpline
 70
8
 71
3
 72
8
 73
4
 74
0
 40
0
 40
0
 40
0
 40
0
 40
1
 40
1
 40
1
 40
1
 10
36.954799
 20
85.778989
 30
0.0
 10
36.578946
 20
85.025507
 30
0.0
 10
36.559586
 20
84.601840
 30
0.0
 10
36.874173
 20
84.014714
 30
0.0
  0
SPLINE
  5
11e
100
AcDbEntity
  8
logo
 62
7
100
AcDbSpline
 70
8
 71
3
 72
8
 73
4
 74
0
 40
0
 40
0
 40
0
 40
0
 40
1
 40
1
 40
1
 40
1
 10
36.874173
 20
84.014714
 30
0.0
 10
37.056136
 20
83.675107
 30
0.0
 10
37.190353
 20
83.503984
 30
0.0
 10
37.636916
 20
83.042238
 30
0.0
  0
SPLINE
  5
11f
100
AcDbEntity
  8
logo
 62
7
100
AcDbSpline
 70
8
 71
3
 72
8
 73
4
 74
0
 40
0
 40
0
 40
0
 40
0
 40
1
 40
1
 40
1
 40
1
 10
37.636916
 20
83.042238
 30
0.0
 10
38.229997
 20
82.428994
 30
0.0
 10
40.593346
 20
80.303012
 30
0.0
 10
42.038372
 20
79.082846
 30
0.0
  0
SPLINE
  5
120
100
AcDbEntity
  8
logo
 62
7
100
AcDbSpline
 70
8
 71
3
 72
8
 73
4
 74
0
 40
0
 40
0
 40
0
 40
0
 40
1
 40
1
 40
1
 40
1
 10
42.038372
 20
79.082846
 30
0.0
 10
42.224500
 20
78.925682
 30
0.0
 10
42.605108
 20
78.579325
 30
0.0
 10
42.884169
 20
78.313164
 30
0.0
  0
SPLINE
  5
121
100
AcDbEntity
  8
logo
 62
7
100
AcDbSpline
 70
8
 71
3
 72
8
 73
4
 74
0
 40
0
 40
0
 40
0
 40
0
 40
1
 40
1
 40
1
 40
1
 10
42.884169
 20
78.313164
 30
0.0
 10
43.163228
 20
78.047003
 30
0.0
 10
43.450025
 20
77.778472
 30
0.0
 10
43.521492
 20
77.716428
 30
0.0
  0
SPLINE
  5
122
100
AcDbEntity
  8
logo
 62
7
100
AcDbSpline
 70
8
 71
3
 72
8
 73
4
 74
0
 40
0
 40
0
 40
0
 40
0
 40
1
 40
1
 40
1
 40
1
 10
43.521492
 20
77.716428
 30
0.0
 10
43.592959
 20
77.654387
 30
0.0
 10
43.787655
 20
77.474168
 30
0.0
 10
43.954152
 20
77.315943
 30
0.0
  0
SPLINE
  5
123
100
AcDbEntity
  8
logo
 62
7
100
AcDbSpline
 70
8
 71
3
 72
8
 73
4
 74
0
 40
0
 40
0
 40
0
 40
0
 40
1
 40
1
 40
1
 40
1
 10
43.954152
 20
77.315943
 30
0.0
 10
44.120647
 20
77.157718
 30
0.0
 10
44.392238
 20
76.919336
 30
0.0
 10
44.557685
 20
76.786204
 30
0.0
  0
SPLINE
  5
124
100
AcDbEntity
  8
logo
 62
7
100
AcDbSpline
 70
8
 71
3
 72
8
 73
4
 74
0
 40
0
 40
0
 40
0
 40
0
 40
1
 40
1
 40
1
 40
1
 10
44.557685
 20
76.786204
 30
0.0
 10
44.723132
 20
76.653071
 30
0.0
 10
45.027706
 20
76.389301
 30
0.0
 10
45.234516
 20
76.200045
 30
0.0
  0
SPLINE
  5
125
100
AcDbEntity
  8
logo
 62
7
100
AcDbSpline
 70
8
 71
3
 72
8
 73
4
 74
0
 40
0
 40
0
 40
0
 40
0
 40
1
 40
1
 40
1
 40
1
 10
45.234516
 20
76.200045
 30
0.0
 10
45.441325
 20
76.010790
 30
0.0
 10
45.776464
 20
75.710189
 30
0.0
 10
45.979272
 20
75.532042
 30
0.0
  0
SPLINE
  5
126
100
AcDbEntity
  8
logo
 62
7
100
AcDbSpline
 70
8
 71
3
 72
8
 73
4
 74
0
 40
0
 40
0
 40
0
 40
0
 40
1
 40
1
 40
1
 40
1
 10
45.979272
 20
75.532042
 30
0.0
 10
46.291988
 20
75.257352
 30
0.0
 10
46.346260
 20
75.193071
 30
0.0
 10
46.336486
 20
75.108946
 30
0.0
  0
SPLINE
  5
127
100
AcDbEntity
  8
logo
 62
7
100
AcDbSpline
 70
8
 71
3
 72
8
 73
4
 74
0
 40
0
 40
0
 40
0
 40
0
 40
1
 40
1
 40
1
 40
1
 10
46.336486
 20
75.108946
 30
0.0
 10
46.322319
 20
74.986986
 30
0.0
 10
46.229575
 20
74.963167
 30
0.0
 10
46.142693
 20
75.059173
 30
0.0
  0
LWPOLYLINE
  5
128
100
AcDbEntity
  8
Layer_1
 62
7
100
AcDbPolyline
 90
5
 70
1
 10
90.141112
 20
260.141110
 30
0.0
 10
144.141111
 20
260.141110
 30
0.0
 10
144.141111
 20
160.141107
 30
0.0
 10
90.141112
 20
160.141107
 30
0.0
 10
90.141112
 20
260.141110
 30
0.0
  0
SPLINE
  5
129
100
AcDbEntity
  8
logo
 62
7
100
AcDbSpline
 70
8
 71
3
 72
8
 73
4
 74
0
 40
0
 40
0
 40
0
 40
0
 40
1
 40
1
 40
1
 40
1
 10
46.268561
 20
75.116086
 30
0.0
 10
46.268561
 20
75.123226
 30
0.0
 10
46.230492
 20
75.161292
 30
0.0
 10
46.183959
 20
75.200688
 30
0.0
  0
LWPOLYLINE
  5
12a
100
AcDbEntity
  8
logo
 62
7
100
AcDbPolyline
 90
2
 70
1
 10
46.142693
 20
75.059173
 30
0.0
 10
46.142693
 20
75.059173
 30
0.0
  0
SPLINE
  5
12b
100
AcDbEntity
  8
logo
 62
7
100
AcDbSpline
 70
8
 71
3
 72
8
 73
4
 74
0
 40
0
 40
0
 40
0
 40
0
 40
1
 40
1
 40
1
 40
1
 10
46.170985
 20
75.187717
 30
0.0
 10
46.238301
 20
75.108209
 30
0.0
 10
46.268561
 20
75.085993
 30
0.0
 10
46.268561
 20
75.116086
 30
0.0
  0
LWPOLYLINE
  5
12c
100
AcDbEntity
  8
logo
 62
7
100
AcDbPolyline
 90
3
 70
1
 10
46.183959
 20
75.200688
 30
0.0
 10
46.099355
 20
75.272319
 30
0.0
 10
46.170985
 20
75.187717
 30
0.0
  0
SPLINE
  5
12d
100
AcDbEntity
  8
logo
 62
7
100
AcDbSpline
 70
8
 71
3
 72
8
 73
4
 74
0
 40
0
 40
0
 40
0
 40
0
 40
1
 40
1
 40
1
 40
1
 10
46.080553
 20
75.291120
 30
0.0
 10
46.080553
 20
75.311807
 30
0.0
 10
46.062632
 20
75.328721
 30
0.0
 10
46.040734
 20
75.328721
 30
0.0
  0
SPLINE
  5
12e
100
AcDbEntity
  8
logo
 62
7
100
AcDbSpline
 70
8
 71
3
 72
8
 73
4
 74
0
 40
0
 40
0
 40
0
 40
0
 40
1
 40
1
 40
1
 40
1
 10
46.040734
 20
75.328721
 30
0.0
 10
46.018834
 20
75.328721
 30
0.0
 10
46.011369
 20
75.311787
 30
0.0
 10
46.024140
 20
75.291120
 30
0.0
  0
SPLINE
  5
12f
100
AcDbEntity
  8
logo
 62
7
100
AcDbSpline
 70
8
 71
3
 72
8
 73
4
 74
0
 40
0
 40
0
 40
0
 40
0
 40
1
 40
1
 40
1
 40
1
 10
46.024140
 20
75.291120
 30
0.0
 10
46.036924
 20
75.270433
 30
0.0
 10
46.054840
 20
75.253520
 30
0.0
 10
46.063961
 20
75.253520
 30
0.0
  0
SPLINE
  5
130
100
AcDbEntity
  8
logo
 62
7
100
AcDbSpline
 70
8
 71
3
 72
8
 73
4
 74
0
 40
0
 40
0
 40
0
 40
0
 40
1
 40
1
 40
1
 40
1
 10
46.063961
 20
75.253520
 30
0.0
 10
46.073077
 20
75.253520
 30
0.0
 10
46.080556
 20
75.270425
 30
0.0
 10
46.080556
 20
75.291120
 30
0.0
  0
LWPOLYLINE
  5
131
100
AcDbEntity
  8
logo
 62
7
100
AcDbPolyline
 90
2
 70
1
 10
46.268561
 20
75.116086
 30
0.0
 10
46.268561
 20
75.116086
 30
0.0
  0
SPLINE
  5
132
100
AcDbEntity
  8
logo
 62
7
100
AcDbSpline
 70
8
 71
3
 72
8
 73
4
 74
0
 40
0
 40
0
 40
0
 40
0
 40
1
 40
1
 40
1
 40
1
 10
45.777768
 20
75.545659
 30
0.0
 10
45.665108
 20
75.643018
 30
0.0
 10
45.522168
 20
75.772645
 30
0.0
 10
45.460127
 20
75.833721
 30
0.0
  0
SPLINE
  5
133
100
AcDbEntity
  8
logo
 62
7
100
AcDbSpline
 70
8
 71
3
 72
8
 73
4
 74
0
 40
0
 40
0
 40
0
 40
0
 40
1
 40
1
 40
1
 40
1
 10
45.460127
 20
75.833721
 30
0.0
 10
45.307606
 20
75.983863
 30
0.0
 10
44.908795
 20
76.347729
 30
0.0
 10
44.810008
 20
76.426876
 30
0.0
  0
SPLINE
  5
134
100
AcDbEntity
  8
logo
 62
7
100
AcDbSpline
 70
8
 71
3
 72
8
 73
4
 74
0
 40
0
 40
0
 40
0
 40
0
 40
1
 40
1
 40
1
 40
1
 10
44.810008
 20
76.426876
 30
0.0
 10
44.342019
 20
76.801822
 30
0.0
 10
44.218375
 20
76.910074
 30
0.0
 10
43.684613
 20
77.412175
 30
0.0
  0
SPLINE
  5
135
100
AcDbEntity
  8
logo
 62
7
100
AcDbSpline
 70
8
 71
3
 72
8
 73
4
 74
0
 40
0
 40
0
 40
0
 40
0
 40
1
 40
1
 40
1
 40
1
 10
43.684613
 20
77.412175
 30
0.0
 10
43.554715
 20
77.534369
 30
0.0
 10
43.448436
 20
77.627141
 30
0.0
 10
43.448436
 20
77.618333
 30
0.0
  0
SPLINE
  5
136
100
AcDbEntity
  8
logo
 62
7
100
AcDbSpline
 70
8
 71
3
 72
8
 73
4
 74
0
 40
0
 40
0
 40
0
 40
0
 40
1
 40
1
 40
1
 40
1
 10
43.448436
 20
77.618333
 30
0.0
 10
43.448436
 20
77.609528
 30
0.0
 10
43.258077
 20
77.788745
 30
0.0
 10
43.025416
 20
78.016591
 30
0.0
  0
SPLINE
  5
137
100
AcDbEntity
  8
logo
 62
7
100
AcDbSpline
 70
8
 71
3
 72
8
 73
4
 74
0
 40
0
 40
0
 40
0
 40
0
 40
1
 40
1
 40
1
 40
1
 10
43.025416
 20
78.016591
 30
0.0
 10
42.614218
 20
78.419285
 30
0.0
 10
41.705141
 20
79.239299
 30
0.0
 10
41.669908
 20
79.239299
 30
0.0
  0
SPLINE
  5
138
100
AcDbEntity
  8
logo
 62
7
100
AcDbSpline
 70
8
 71
3
 72
8
 73
4
 74
0
 40
0
 40
0
 40
0
 40
0
 40
1
 40
1
 40
1
 40
1
 10
41.669908
 20
79.239299
 30
0.0
 10
41.660284
 20
79.239299
 30
0.0
 10
41.586587
 20
79.302751
 30
0.0
 10
41.506146
 20
79.380303
 30
0.0
  0
SPLINE
  5
139
100
AcDbEntity
  8
logo
 62
7
100
AcDbSpline
 70
8
 71
3
 72
8
 73
4
 74
0
 40
0
 40
0
 40
0
 40
0
 40
1
 40
1
 40
1
 40
1
 10
41.506146
 20
79.380303
 30
0.0
 10
41.425707
 20
79.457858
 30
0.0
 10
41.199723
 20
79.656678
 30
0.0
 10
41.003962
 20
79.822125
 30
0.0
  0
SPLINE
  5
13a
100
AcDbEntity
  8
logo
 62
7
100
AcDbSpline
 70
8
 71
3
 72
8
 73
4
 74
0
 40
0
 40
0
 40
0
 40
0
 40
1
 40
1
 40
1
 40
1
 10
41.003962
 20
79.822125
 30
0.0
 10
40.808202
 20
79.987572
 30
0.0
 10
40.553459
 20
80.207541
 30
0.0
 10
40.437867
 20
80.310945
 30
0.0
  0
SPLINE
  5
13b
100
AcDbEntity
  8
logo
 62
7
100
AcDbSpline
 70
8
 71
3
 72
8
 73
4
 74
0
 40
0
 40
0
 40
0
 40
0
 40
1
 40
1
 40
1
 40
1
 10
40.437867
 20
80.310945
 30
0.0
 10
40.016430
 20
80.687949
 30
0.0
 10
39.713696
 20
80.950418
 30
0.0
 10
39.688395
 20
80.960736
 30
0.0
  0
SPLINE
  5
13c
100
AcDbEntity
  8
logo
 62
7
100
AcDbSpline
 70
8
 71
3
 72
8
 73
4
 74
0
 40
0
 40
0
 40
0
 40
0
 40
1
 40
1
 40
1
 40
1
 10
39.688395
 20
80.960736
 30
0.0
 10
39.674142
 20
80.966550
 30
0.0
 10
39.544924
 20
81.084990
 30
0.0
 10
39.401222
 20
81.223948
 30
0.0
  0
SPLINE
  5
13d
100
AcDbEntity
  8
logo
 62
7
100
AcDbSpline
 70
8
 71
3
 72
8
 73
4
 74
0
 40
0
 40
0
 40
0
 40
0
 40
1
 40
1
 40
1
 40
1
 10
39.401222
 20
81.223948
 30
0.0
 10
39.094193
 20
81.520843
 30
0.0
 10
38.544760
 20
82.021082
 30
0.0
 10
38.407840
 20
82.128385
 30
0.0
  0
SPLINE
  5
13e
100
AcDbEntity
  8
logo
 62
7
100
AcDbSpline
 70
8
 71
3
 72
8
 73
4
 74
0
 40
0
 40
0
 40
0
 40
0
 40
1
 40
1
 40
1
 40
1
 10
38.407840
 20
82.128385
 30
0.0
 10
38.218310
 20
82.276919
 30
0.0
 10
37.156271
 20
83.359752
 30
0.0
 10
37.060240
 20
83.502370
 30
0.0
  0
SPLINE
  5
13f
100
AcDbEntity
  8
logo
 62
7
100
AcDbSpline
 70
8
 71
3
 72
8
 73
4
 74
0
 40
0
 40
0
 40
0
 40
0
 40
1
 40
1
 40
1
 40
1
 10
37.060240
 20
83.502370
 30
0.0
 10
36.797288
 20
83.892892
 30
0.0
 10
36.710589
 20
84.052500
 30
0.0
 10
36.641921
 20
84.272484
 30
0.0
  0
SPLINE
  5
140
100
AcDbEntity
  8
logo
 62
7
100
AcDbSpline
 70
8
 71
3
 72
8
 73
4
 74
0
 40
0
 40
0
 40
0
 40
0
 40
1
 40
1
 40
1
 40
1
 10
36.641921
 20
84.272484
 30
0.0
 10
36.499648
 20
84.728267
 30
0.0
 10
36.575167
 20
85.377034
 30
0.0
 10
36.816975
 20
85.776277
 30
0.0
  0
SPLINE
  5
141
100
AcDbEntity
  8
logo
 62
7
100
AcDbSpline
 70
8
 71
3
 72
8
 73
4
 74
0
 40
0
 40
0
 40
0
 40
0
 40
1
 40
1
 40
1
 40
1
 10
36.816975
 20
85.776277
 30
0.0
 10
36.876138
 20
85.873960
 30
0.0
 10
36.975305
 20
86.051370
 30
0.0
 10
37.037346
 20
86.170519
 30
0.0
  0
SPLINE
  5
142
100
AcDbEntity
  8
logo
 62
7
100
AcDbSpline
 70
8
 71
3
 72
8
 73
4
 74
0
 40
0
 40
0
 40
0
 40
0
 40
1
 40
1
 40
1
 40
1
 10
37.037346
 20
86.170519
 30
0.0
 10
37.113670
 20
86.317091
 30
0.0
 10
37.280477
 20
86.514277
 30
0.0
 10
37.553110
 20
86.780206
 30
0.0
  0
SPLINE
  5
143
100
AcDbEntity
  8
logo
 62
7
100
AcDbSpline
 70
8
 71
3
 72
8
 73
4
 74
0
 40
0
 40
0
 40
0
 40
0
 40
1
 40
1
 40
1
 40
1
 10
37.553110
 20
86.780206
 30
0.0
 10
37.774739
 20
86.996383
 30
0.0
 10
37.971242
 20
87.173254
 30
0.0
 10
37.989787
 20
87.173254
 30
0.0
  0
SPLINE
  5
144
100
AcDbEntity
  8
logo
 62
7
100
AcDbSpline
 70
8
 71
3
 72
8
 73
4
 74
0
 40
0
 40
0
 40
0
 40
0
 40
1
 40
1
 40
1
 40
1
 10
37.989787
 20
87.173254
 30
0.0
 10
38.020351
 20
87.173254
 30
0.0
 10
38.130076
 20
87.285285
 30
0.0
 10
38.470177
 20
87.663742
 30
0.0
  0
SPLINE
  5
145
100
AcDbEntity
  8
logo
 62
7
100
AcDbSpline
 70
8
 71
3
 72
8
 73
4
 74
0
 40
0
 40
0
 40
0
 40
0
 40
1
 40
1
 40
1
 40
1
 10
38.470177
 20
87.663742
 30
0.0
 10
38.643583
 20
87.856701
 30
0.0
 10
39.642931
 20
88.822428
 30
0.0
 10
40.178595
 20
89.314675
 30
0.0
  0
SPLINE
  5
146
100
AcDbEntity
  8
logo
 62
7
100
AcDbSpline
 70
8
 71
3
 72
8
 73
4
 74
0
 40
0
 40
0
 40
0
 40
0
 40
1
 40
1
 40
1
 40
1
 10
40.178595
 20
89.314675
 30
0.0
 10
40.436278
 20
89.551476
 30
0.0
 10
40.850160
 20
89.942269
 30
0.0
 10
41.098329
 20
90.183106
 30
0.0
  0
SPLINE
  5
147
100
AcDbEntity
  8
logo
 62
7
100
AcDbSpline
 70
8
 71
3
 72
8
 73
4
 74
0
 40
0
 40
0
 40
0
 40
0
 40
1
 40
1
 40
1
 40
1
 10
41.098329
 20
90.183106
 30
0.0
 10
41.852669
 20
90.915160
 30
0.0
 10
42.361225
 20
91.382012
 30
0.0
 10
42.687000
 20
91.641509
 30
0.0
  0
SPLINE
  5
148
100
AcDbEntity
  8
logo
 62
7
100
AcDbSpline
 70
8
 71
3
 72
8
 73
4
 74
0
 40
0
 40
0
 40
0
 40
0
 40
1
 40
1
 40
1
 40
1
 10
42.687000
 20
91.641509
 30
0.0
 10
42.857618
 20
91.777416
 30
0.0
 10
42.997216
 20
91.899274
 30
0.0
 10
42.997216
 20
91.912307
 30
0.0
  0
SPLINE
  5
149
100
AcDbEntity
  8
logo
 62
7
100
AcDbSpline
 70
8
 71
3
 72
8
 73
4
 74
0
 40
0
 40
0
 40
0
 40
0
 40
1
 40
1
 40
1
 40
1
 10
42.997216
 20
91.912307
 30
0.0
 10
42.997216
 20
91.925346
 30
0.0
 10
43.086048
 20
91.993280
 30
0.0
 10
43.194625
 20
92.063282
 30
0.0
  0
SPLINE
  5
14a
100
AcDbEntity
  8
logo
 62
7
100
AcDbSpline
 70
8
 71
3
 72
8
 73
4
 74
0
 40
0
 40
0
 40
0
 40
0
 40
1
 40
1
 40
1
 40
1
 10
43.194625
 20
92.063282
 30
0.0
 10
43.427715
 20
92.213568
 30
0.0
 10
43.399010
 20
92.191964
 30
0.0
 10
43.728699
 20
92.465206
 30
0.0
  0
SPLINE
  5
14b
100
AcDbEntity
  8
logo
 62
7
100
AcDbSpline
 70
8
 71
3
 72
8
 73
4
 74
0
 40
0
 40
0
 40
0
 40
0
 40
1
 40
1
 40
1
 40
1
 10
43.728699
 20
92.465206
 30
0.0
 10
43.872506
 20
92.584389
 30
0.0
 10
44.151697
 20
92.834488
 30
0.0
 10
44.349128
 20
93.020983
 30
0.0
  0
SPLINE
  5
14c
100
AcDbEntity
  8
logo
 62
7
100
AcDbSpline
 70
8
 71
3
 72
8
 73
4
 74
0
 40
0
 40
0
 40
0
 40
0
 40
1
 40
1
 40
1
 40
1
 10
44.349128
 20
93.020983
 30
0.0
 10
44.546560
 20
93.207476
 30
0.0
 10
44.862922
 20
93.486670
 30
0.0
 10
45.052161
 20
93.641410
 30
0.0
  0
SPLINE
  5
14d
100
AcDbEntity
  8
logo
 62
7
100
AcDbSpline
 70
8
 71
3
 72
8
 73
4
 74
0
 40
0
 40
0
 40
0
 40
0
 40
1
 40
1
 40
1
 40
1
 10
45.052161
 20
93.641410
 30
0.0
 10
45.241396
 20
93.796152
 30
0.0
 10
45.452908
 20
93.970340
 30
0.0
 10
45.522182
 20
94.028494
 30
0.0
  0
LWPOLYLINE
  5
14e
100
AcDbEntity
  8
logo
 62
7
100
AcDbPolyline
 90
2
 70
1
 10
46.080556
 20
75.291120
 30
0.0
 10
46.080553
 20
75.291120
 30
0.0
  0
SPLINE
  5
14f
100
AcDbEntity
  8
logo
 62
7
100
AcDbSpline
 70
8
 71
3
 72
8
 73
4
 74
0
 40
0
 40
0
 40
0
 40
0
 40
1
 40
1
 40
1
 40
1
 10
45.441325
 20
94.017425
 30
0.0
 10
45.327581
 20
93.953183
 30
0.0
 10
45.141557
 20
93.854840
 30
0.0
 10
45.027940
 20
93.798887
 30
0.0
  0
SPLINE
  5
150
100
AcDbEntity
  8
logo
 62
7
100
AcDbSpline
 70
8
 71
3
 72
8
 73
4
 74
0
 40
0
 40
0
 40
0
 40
0
 40
1
 40
1
 40
1
 40
1
 10
45.027940
 20
93.798887
 30
0.0
 10
44.914323
 20
93.742931
 30
0.0
 10
44.804338
 20
93.683692
 30
0.0
 10
44.783530
 20
93.667247
 30
0.0
  0
SPLINE
  5
151
100
AcDbEntity
  8
logo
 62
7
100
AcDbSpline
 70
8
 71
3
 72
8
 73
4
 74
0
 40
0
 40
0
 40
0
 40
0
 40
1
 40
1
 40
1
 40
1
 10
44.783530
 20
93.667247
 30
0.0
 10
44.747770
 20
93.638982
 30
0.0
 10
44.190488
 20
93.328442
 30
0.0
 10
43.691133
 20
93.058513
 30
0.0
  0
SPLINE
  5
152
100
AcDbEntity
  8
logo
 62
7
100
AcDbSpline
 70
8
 71
3
 72
8
 73
4
 74
0
 40
0
 40
0
 40
0
 40
0
 40
1
 40
1
 40
1
 40
1
 10
43.691133
 20
93.058513
 30
0.0
 10
43.443212
 20
92.924497
 30
0.0
 10
43.079410
 20
92.714722
 30
0.0
 10
42.940199
 20
92.625500
 30
0.0
  0
SPLINE
  5
153
100
AcDbEntity
  8
logo
 62
7
100
AcDbSpline
 70
8
 71
3
 72
8
 73
4
 74
0
 40
0
 40
0
 40
0
 40
0
 40
1
 40
1
 40
1
 40
1
 10
42.940199
 20
92.625500
 30
0.0
 10
42.891795
 20
92.594478
 30
0.0
 10
42.728303
 20
92.494763
 30
0.0
 10
42.576888
 20
92.403910
 30
0.0
  0
SPLINE
  5
154
100
AcDbEntity
  8
logo
 62
7
100
AcDbSpline
 70
8
 71
3
 72
8
 73
4
 74
0
 40
0
 40
0
 40
0
 40
0
 40
1
 40
1
 40
1
 40
1
 10
42.576888
 20
92.403910
 30
0.0
 10
42.066642
 20
92.097753
 30
0.0
 10
41.946689
 20
92.012934
 30
0.0
 10
41.970190
 20
91.974913
 30
0.0
  0
SPLINE
  5
155
100
AcDbEntity
  8
logo
 62
7
100
AcDbSpline
 70
8
 71
3
 72
8
 73
4
 74
0
 40
0
 40
0
 40
0
 40
0
 40
1
 40
1
 40
1
 40
1
 10
41.970190
 20
91.974913
 30
0.0
 10
41.983228
 20
91.953831
 30
0.0
 10
41.974903
 20
91.948610
 30
0.0
 10
41.951422
 20
91.963116
 30
0.0
  0
SPLINE
  5
156
100
AcDbEntity
  8
logo
 62
7
100
AcDbSpline
 70
8
 71
3
 72
8
 73
4
 74
0
 40
0
 40
0
 40
0
 40
0
 40
1
 40
1
 40
1
 40
1
 10
41.951422
 20
91.963116
 30
0.0
 10
41.903215
 20
91.992910
 30
0.0
 10
41.574133
 20
91.831620
 30
0.0
 10
41.135932
 20
91.563430
 30
0.0
  0
SPLINE
  5
157
100
AcDbEntity
  8
logo
 62
7
100
AcDbSpline
 70
8
 71
3
 72
8
 73
4
 74
0
 40
0
 40
0
 40
0
 40
0
 40
1
 40
1
 40
1
 40
1
 10
41.135932
 20
91.563430
 30
0.0
 10
40.769373
 20
91.339086
 30
0.0
 10
40.818774
 20
91.368778
 30
0.0
 10
40.277158
 20
91.047271
 30
0.0
  0
SPLINE
  5
158
100
AcDbEntity
  8
logo
 62
7
100
AcDbSpline
 70
8
 71
3
 72
8
 73
4
 74
0
 40
0
 40
0
 40
0
 40
0
 40
1
 40
1
 40
1
 40
1
 10
40.277158
 20
91.047271
 30
0.0
 10
40.032322
 20
90.901935
 30
0.0
 10
39.823844
 20
90.783023
 30
0.0
 10
39.813876
 20
90.783023
 30
0.0
  0
SPLINE
  5
159
100
AcDbEntity
  8
logo
 62
7
100
AcDbSpline
 70
8
 71
3
 72
8
 73
4
 74
0
 40
0
 40
0
 40
0
 40
0
 40
1
 40
1
 40
1
 40
1
 10
39.813876
 20
90.783023
 30
0.0
 10
39.803914
 20
90.783023
 30
0.0
 10
39.691189
 20
90.708901
 30
0.0
 10
39.563398
 20
90.618307
 30
0.0
  0
SPLINE
  5
15a
100
AcDbEntity
  8
logo
 62
7
100
AcDbSpline
 70
8
 71
3
 72
8
 73
4
 74
0
 40
0
 40
0
 40
0
 40
0
 40
1
 40
1
 40
1
 40
1
 10
39.563398
 20
90.618307
 30
0.0
 10
39.435608
 20
90.527714
 30
0.0
 10
39.238874
 20
90.407290
 30
0.0
 10
39.126214
 20
90.350698
 30
0.0
  0
SPLINE
  5
15b
100
AcDbEntity
  8
logo
 62
7
100
AcDbSpline
 70
8
 71
3
 72
8
 73
4
 74
0
 40
0
 40
0
 40
0
 40
0
 40
1
 40
1
 40
1
 40
1
 10
39.126214
 20
90.350698
 30
0.0
 10
39.013553
 20
90.294107
 30
0.0
 10
38.793584
 20
90.168208
 30
0.0
 10
38.637391
 20
90.070920
 30
0.0
  0
SPLINE
  5
15c
100
AcDbEntity
  8
logo
 62
7
100
AcDbSpline
 70
8
 71
3
 72
8
 73
4
 74
0
 40
0
 40
0
 40
0
 40
0
 40
1
 40
1
 40
1
 40
1
 10
38.637391
 20
90.070920
 30
0.0
 10
38.481200
 20
89.973635
 30
0.0
 10
38.328024
 20
89.882658
 30
0.0
 10
38.297002
 20
89.868748
 30
0.0
  0
SPLINE
  5
15d
100
AcDbEntity
  8
logo
 62
7
100
AcDbSpline
 70
8
 71
3
 72
8
 73
4
 74
0
 40
0
 40
0
 40
0
 40
0
 40
1
 40
1
 40
1
 40
1
 10
38.297002
 20
89.868748
 30
0.0
 10
38.227612
 20
89.837635
 30
0.0
 10
38.228448
 20
89.838180
 30
0.0
 10
37.509989
 20
89.356351
 30
0.0
  0
SPLINE
  5
15e
100
AcDbEntity
  8
logo
 62
7
100
AcDbSpline
 70
8
 71
3
 72
8
 73
4
 74
0
 40
0
 40
0
 40
0
 40
0
 40
1
 40
1
 40
1
 40
1
 10
37.509989
 20
89.356351
 30
0.0
 10
37.187993
 20
89.140405
 30
0.0
 10
36.806096
 20
88.875266
 30
0.0
 10
36.661330
 20
88.767150
 30
0.0
  0
SPLINE
  5
15f
100
AcDbEntity
  8
logo
 62
7
100
AcDbSpline
 70
8
 71
3
 72
8
 73
4
 74
0
 40
0
 40
0
 40
0
 40
0
 40
1
 40
1
 40
1
 40
1
 10
36.661330
 20
88.767150
 30
0.0
 10
36.122858
 20
88.364997
 30
0.0
 10
35.976077
 20
88.254580
 30
0.0
 10
35.627285
 20
87.989283
 30
0.0
  0
SPLINE
  5
160
100
AcDbEntity
  8
logo
 62
7
100
AcDbSpline
 70
8
 71
3
 72
8
 73
4
 74
0
 40
0
 40
0
 40
0
 40
0
 40
1
 40
1
 40
1
 40
1
 10
35.627285
 20
87.989283
 30
0.0
 10
35.125302
 20
87.607473
 30
0.0
 10
34.614968
 20
87.238758
 30
0.0
 10
34.470983
 20
87.153866
 30
0.0
  0
SPLINE
  5
161
100
AcDbEntity
  8
logo
 62
7
100
AcDbSpline
 70
8
 71
3
 72
8
 73
4
 74
0
 40
0
 40
0
 40
0
 40
0
 40
1
 40
1
 40
1
 40
1
 10
34.470983
 20
87.153866
 30
0.0
 10
34.403744
 20
87.114222
 30
0.0
 10
34.339149
 20
87.051605
 30
0.0
 10
34.327442
 20
87.014719
 30
0.0
  0
SPLINE
  5
162
100
AcDbEntity
  8
logo
 62
7
100
AcDbSpline
 70
8
 71
3
 72
8
 73
4
 74
0
 40
0
 40
0
 40
0
 40
0
 40
1
 40
1
 40
1
 40
1
 10
34.327442
 20
87.014719
 30
0.0
 10
34.315730
 20
86.977830
 30
0.0
 10
34.294112
 20
86.947652
 30
0.0
 10
34.279391
 20
86.947652
 30
0.0
  0
SPLINE
  5
163
100
AcDbEntity
  8
logo
 62
7
100
AcDbSpline
 70
8
 71
3
 72
8
 73
4
 74
0
 40
0
 40
0
 40
0
 40
0
 40
1
 40
1
 40
1
 40
1
 10
34.279391
 20
86.947652
 30
0.0
 10
34.220491
 20
86.947652
 30
0.0
 10
33.982716
 20
86.680542
 30
0.0
 10
33.905413
 20
86.527536
 30
0.0
  0
SPLINE
  5
164
100
AcDbEntity
  8
logo
 62
7
100
AcDbSpline
 70
8
 71
3
 72
8
 73
4
 74
0
 40
0
 40
0
 40
0
 40
0
 40
1
 40
1
 40
1
 40
1
 10
33.905413
 20
86.527536
 30
0.0
 10
33.724667
 20
86.169796
 30
0.0
 10
33.653321
 20
85.860368
 30
0.0
 10
33.655474
 20
85.443582
 30
0.0
  0
SPLINE
  5
165
100
AcDbEntity
  8
logo
 62
7
100
AcDbSpline
 70
8
 71
3
 72
8
 73
4
 74
0
 40
0
 40
0
 40
0
 40
0
 40
1
 40
1
 40
1
 40
1
 10
33.655474
 20
85.443582
 30
0.0
 10
33.657450
 20
85.072172
 30
0.0
 10
33.664929
 20
85.034275
 30
0.0
 10
33.782728
 20
84.804354
 30
0.0
  0
SPLINE
  5
166
100
AcDbEntity
  8
logo
 62
7
100
AcDbSpline
 70
8
 71
3
 72
8
 73
4
 74
0
 40
0
 40
0
 40
0
 40
0
 40
1
 40
1
 40
1
 40
1
 10
33.782728
 20
84.804354
 30
0.0
 10
33.997680
 20
84.384775
 30
0.0
 10
34.563341
 20
83.601100
 30
0.0
 10
34.651242
 20
83.601100
 30
0.0
  0
SPLINE
  5
167
100
AcDbEntity
  8
logo
 62
7
100
AcDbSpline
 70
8
 71
3
 72
8
 73
4
 74
0
 40
0
 40
0
 40
0
 40
0
 40
1
 40
1
 40
1
 40
1
 10
34.651242
 20
83.601100
 30
0.0
 10
34.671054
 20
83.601100
 30
0.0
 10
34.687242
 20
83.577676
 30
0.0
 10
34.687242
 20
83.549022
 30
0.0
  0
SPLINE
  5
168
100
AcDbEntity
  8
logo
 62
7
100
AcDbSpline
 70
8
 71
3
 72
8
 73
4
 74
0
 40
0
 40
0
 40
0
 40
0
 40
1
 40
1
 40
1
 40
1
 10
34.687242
 20
83.549022
 30
0.0
 10
34.687242
 20
83.520379
 30
0.0
 10
34.730842
 20
83.468377
 30
0.0
 10
34.784132
 20
83.433460
 30
0.0
  0
SPLINE
  5
169
100
AcDbEntity
  8
logo
 62
7
100
AcDbSpline
 70
8
 71
3
 72
8
 73
4
 74
0
 40
0
 40
0
 40
0
 40
0
 40
1
 40
1
 40
1
 40
1
 10
34.784132
 20
83.433460
 30
0.0
 10
34.878292
 20
83.371761
 30
0.0
 10
34.930131
 20
83.330373
 30
0.0
 10
35.210998
 20
83.092620
 30
0.0
  0
SPLINE
  5
16a
100
AcDbEntity
  8
logo
 62
7
100
AcDbSpline
 70
8
 71
3
 72
8
 73
4
 74
0
 40
0
 40
0
 40
0
 40
0
 40
1
 40
1
 40
1
 40
1
 10
35.210998
 20
83.092620
 30
0.0
 10
35.284847
 20
83.030108
 30
0.0
 10
35.479871
 20
82.877821
 30
0.0
 10
35.644387
 20
82.754205
 30
0.0
  0
SPLINE
  5
16b
100
AcDbEntity
  8
logo
 62
7
100
AcDbSpline
 70
8
 71
3
 72
8
 73
4
 74
0
 40
0
 40
0
 40
0
 40
0
 40
1
 40
1
 40
1
 40
1
 10
35.644387
 20
82.754205
 30
0.0
 10
35.808900
 20
82.630591
 30
0.0
 10
35.984809
 20
82.491380
 30
0.0
 10
36.035293
 20
82.444847
 30
0.0
  0
SPLINE
  5
16c
100
AcDbEntity
  8
logo
 62
7
100
AcDbSpline
 70
8
 71
3
 72
8
 73
4
 74
0
 40
0
 40
0
 40
0
 40
0
 40
1
 40
1
 40
1
 40
1
 10
36.035293
 20
82.444847
 30
0.0
 10
36.085780
 20
82.398317
 30
0.0
 10
36.138017
 20
82.360245
 30
0.0
 10
36.151374
 20
82.360245
 30
0.0
  0
SPLINE
  5
16d
100
AcDbEntity
  8
logo
 62
7
100
AcDbSpline
 70
8
 71
3
 72
8
 73
4
 74
0
 40
0
 40
0
 40
0
 40
0
 40
1
 40
1
 40
1
 40
1
 10
36.151374
 20
82.360245
 30
0.0
 10
36.164723
 20
82.360245
 30
0.0
 10
36.259556
 20
82.284172
 30
0.0
 10
36.362092
 20
82.191200
 30
0.0
  0
SPLINE
  5
16e
100
AcDbEntity
  8
logo
 62
7
100
AcDbSpline
 70
8
 71
3
 72
8
 73
4
 74
0
 40
0
 40
0
 40
0
 40
0
 40
1
 40
1
 40
1
 40
1
 10
36.362092
 20
82.191200
 30
0.0
 10
36.464629
 20
82.098224
 30
0.0
 10
36.570674
 20
82.022081
 30
0.0
 10
36.597745
 20
82.021990
 30
0.0
  0
SPLINE
  5
16f
100
AcDbEntity
  8
logo
 62
7
100
AcDbSpline
 70
8
 71
3
 72
8
 73
4
 74
0
 40
0
 40
0
 40
0
 40
0
 40
1
 40
1
 40
1
 40
1
 10
36.597745
 20
82.021990
 30
0.0
 10
36.624810
 20
82.021917
 30
0.0
 10
36.636954
 20
82.005622
 30
0.0
 10
36.624726
 20
81.985829
 30
0.0
  0
SPLINE
  5
170
100
AcDbEntity
  8
logo
 62
7
100
AcDbSpline
 70
8
 71
3
 72
8
 73
4
 74
0
 40
0
 40
0
 40
0
 40
0
 40
1
 40
1
 40
1
 40
1
 10
36.624726
 20
81.985829
 30
0.0
 10
36.612477
 20
81.966017
 30
0.0
 10
36.649561
 20
81.925104
 30
0.0
 10
36.707112
 20
81.894883
 30
0.0
  0
SPLINE
  5
171
100
AcDbEntity
  8
logo
 62
7
100
AcDbSpline
 70
8
 71
3
 72
8
 73
4
 74
0
 40
0
 40
0
 40
0
 40
0
 40
1
 40
1
 40
1
 40
1
 10
36.707112
 20
81.894883
 30
0.0
 10
36.764660
 20
81.864663
 30
0.0
 10
36.899582
 20
81.766650
 30
0.0
 10
37.006939
 20
81.677073
 30
0.0
  0
SPLINE
  5
172
100
AcDbEntity
  8
logo
 62
7
100
AcDbSpline
 70
8
 71
3
 72
8
 73
4
 74
0
 40
0
 40
0
 40
0
 40
0
 40
1
 40
1
 40
1
 40
1
 10
37.006939
 20
81.677073
 30
0.0
 10
37.114297
 20
81.587495
 30
0.0
 10
37.283506
 20
81.455091
 30
0.0
 10
37.382958
 20
81.382839
 30
0.0
  0
SPLINE
  5
173
100
AcDbEntity
  8
logo
 62
7
100
AcDbSpline
 70
8
 71
3
 72
8
 73
4
 74
0
 40
0
 40
0
 40
0
 40
0
 40
1
 40
1
 40
1
 40
1
 10
37.382958
 20
81.382839
 30
0.0
 10
37.482410
 20
81.310587
 30
0.0
 10
37.572239
 20
81.241434
 30
0.0
 10
37.582579
 20
81.229169
 30
0.0
  0
SPLINE
  5
174
100
AcDbEntity
  8
logo
 62
7
100
AcDbSpline
 70
8
 71
3
 72
8
 73
4
 74
0
 40
0
 40
0
 40
0
 40
0
 40
1
 40
1
 40
1
 40
1
 10
37.582579
 20
81.229169
 30
0.0
 10
37.592909
 20
81.216892
 30
0.0
 10
37.795970
 20
81.061396
 30
0.0
 10
38.033799
 20
80.883599
 30
0.0
  0
SPLINE
  5
175
100
AcDbEntity
  8
logo
 62
7
100
AcDbSpline
 70
8
 71
3
 72
8
 73
4
 74
0
 40
0
 40
0
 40
0
 40
0
 40
1
 40
1
 40
1
 40
1
 10
38.033799
 20
80.883599
 30
0.0
 10
38.271631
 20
80.705802
 30
0.0
 10
38.508522
 20
80.528216
 30
0.0
 10
38.560223
 20
80.488965
 30
0.0
  0
SPLINE
  5
176
100
AcDbEntity
  8
logo
 62
7
100
AcDbSpline
 70
8
 71
3
 72
8
 73
4
 74
0
 40
0
 40
0
 40
0
 40
0
 40
1
 40
1
 40
1
 40
1
 10
38.560223
 20
80.488965
 30
0.0
 10
38.611926
 20
80.449711
 30
0.0
 10
38.823437
 20
80.301874
 30
0.0
 10
39.030244
 20
80.160436
 30
0.0
  0
SPLINE
  5
177
100
AcDbEntity
  8
logo
 62
7
100
AcDbSpline
 70
8
 71
3
 72
8
 73
4
 74
0
 40
0
 40
0
 40
0
 40
0
 40
1
 40
1
 40
1
 40
1
 10
39.030244
 20
80.160436
 30
0.0
 10
39.421745
 20
79.892683
 30
0.0
 10
39.939905
 20
79.537060
 30
0.0
 10
40.101893
 20
79.424942
 30
0.0
  0
SPLINE
  5
178
100
AcDbEntity
  8
logo
 62
7
100
AcDbSpline
 70
8
 71
3
 72
8
 73
4
 74
0
 40
0
 40
0
 40
0
 40
0
 40
1
 40
1
 40
1
 40
1
 10
40.101893
 20
79.424942
 30
0.0
 10
40.153596
 20
79.389153
 30
0.0
 10
40.449709
 20
79.195109
 30
0.0
 10
40.759922
 20
78.993723
 30
0.0
  0
SPLINE
  5
179
100
AcDbEntity
  8
logo
 62
7
100
AcDbSpline
 70
8
 71
3
 72
8
 73
4
 74
0
 40
0
 40
0
 40
0
 40
0
 40
1
 40
1
 40
1
 40
1
 10
40.759922
 20
78.993723
 30
0.0
 10
41.741177
 20
78.356717
 30
0.0
 10
42.144865
 20
78.074334
 30
0.0
 10
42.719436
 20
77.623018
 30
0.0
  0
SPLINE
  5
17a
100
AcDbEntity
  8
logo
 62
7
100
AcDbSpline
 70
8
 71
3
 72
8
 73
4
 74
0
 40
0
 40
0
 40
0
 40
0
 40
1
 40
1
 40
1
 40
1
 10
42.719436
 20
77.623018
 30
0.0
 10
42.825162
 20
77.539971
 30
0.0
 10
42.930078
 20
77.472024
 30
0.0
 10
42.952577
 20
77.472024
 30
0.0
  0
SPLINE
  5
17b
100
AcDbEntity
  8
logo
 62
7
100
AcDbSpline
 70
8
 71
3
 72
8
 73
4
 74
0
 40
0
 40
0
 40
0
 40
0
 40
1
 40
1
 40
1
 40
1
 10
42.952577
 20
77.472024
 30
0.0
 10
42.975070
 20
77.472024
 30
0.0
 10
43.007018
 20
77.449926
 30
0.0
 10
43.023556
 20
77.422948
 30
0.0
  0
SPLINE
  5
17c
100
AcDbEntity
  8
logo
 62
7
100
AcDbSpline
 70
8
 71
3
 72
8
 73
4
 74
0
 40
0
 40
0
 40
0
 40
0
 40
1
 40
1
 40
1
 40
1
 10
43.023556
 20
77.422948
 30
0.0
 10
43.040094
 20
77.395967
 30
0.0
 10
43.121309
 20
77.324139
 30
0.0
 10
43.204034
 20
77.263354
 30
0.0
  0
SPLINE
  5
17d
100
AcDbEntity
  8
logo
 62
7
100
AcDbSpline
 70
8
 71
3
 72
8
 73
4
 74
0
 40
0
 40
0
 40
0
 40
0
 40
1
 40
1
 40
1
 40
1
 10
43.204034
 20
77.263354
 30
0.0
 10
43.286756
 20
77.202572
 30
0.0
 10
43.362900
 20
77.143240
 30
0.0
 10
43.373240
 20
77.131511
 30
0.0
  0
SPLINE
  5
17e
100
AcDbEntity
  8
logo
 62
7
100
AcDbSpline
 70
8
 71
3
 72
8
 73
4
 74
0
 40
0
 40
0
 40
0
 40
0
 40
1
 40
1
 40
1
 40
1
 10
43.373240
 20
77.131511
 30
0.0
 10
43.383570
 20
77.119771
 30
0.0
 10
43.552787
 20
77.002603
 30
0.0
 10
43.749256
 20
76.871110
 30
0.0
  0
SPLINE
  5
17f
100
AcDbEntity
  8
logo
 62
7
100
AcDbSpline
 70
8
 71
3
 72
8
 73
4
 74
0
 40
0
 40
0
 40
0
 40
0
 40
1
 40
1
 40
1
 40
1
 10
43.749256
 20
76.871110
 30
0.0
 10
43.945725
 20
76.739620
 30
0.0
 10
44.241839
 20
76.538765
 30
0.0
 10
44.407288
 20
76.424767
 30
0.0
  0
SPLINE
  5
180
100
AcDbEntity
  8
logo
 62
7
100
AcDbSpline
 70
8
 71
3
 72
8
 73
4
 74
0
 40
0
 40
0
 40
0
 40
0
 40
1
 40
1
 40
1
 40
1
 10
44.407288
 20
76.424767
 30
0.0
 10
44.572736
 20
76.310767
 30
0.0
 10
44.868569
 20
76.108622
 30
0.0
 10
45.064700
 20
75.975551
 30
0.0
  0
SPLINE
  5
181
100
AcDbEntity
  8
logo
 62
7
100
AcDbSpline
 70
8
 71
3
 72
8
 73
4
 74
0
 40
0
 40
0
 40
0
 40
0
 40
1
 40
1
 40
1
 40
1
 10
45.064700
 20
75.975551
 30
0.0
 10
45.617793
 20
75.600295
 30
0.0
 10
45.910113
 20
75.389452
 30
0.0
 10
45.924673
 20
75.355283
 30
0.0
  0
SPLINE
  5
182
100
AcDbEntity
  8
logo
 62
7
100
AcDbSpline
 70
8
 71
3
 72
8
 73
4
 74
0
 40
0
 40
0
 40
0
 40
0
 40
1
 40
1
 40
1
 40
1
 10
45.924673
 20
75.355283
 30
0.0
 10
45.931983
 20
75.338096
 30
0.0
 10
45.948041
 20
75.334060
 30
0.0
 10
45.960301
 20
75.346337
 30
0.0
  0
SPLINE
  5
183
100
AcDbEntity
  8
logo
 62
7
100
AcDbSpline
 70
8
 71
3
 72
8
 73
4
 74
0
 40
0
 40
0
 40
0
 40
0
 40
1
 40
1
 40
1
 40
1
 10
45.960301
 20
75.346337
 30
0.0
 10
45.972578
 20
75.358614
 30
0.0
 10
45.890437
 20
75.448304
 30
0.0
 10
45.777777
 20
75.545662
 30
0.0
  0
LWPOLYLINE
  5
184
100
AcDbEntity
  8
logo
 62
7
100
AcDbPolyline
 90
3
 70
1
 10
45.522182
 20
94.028494
 30
0.0
 10
45.648135
 20
94.134229
 30
0.0
 10
45.441325
 20
94.017425
 30
0.0
  0
SPLINE
  5
185
100
AcDbEntity
  8
logo
 62
7
100
AcDbSpline
 70
8
 71
3
 72
8
 73
4
 74
0
 40
0
 40
0
 40
0
 40
0
 40
1
 40
1
 40
1
 40
1
 10
30.890763
 20
87.239057
 30
0.0
 10
30.521557
 20
87.613936
 30
0.0
 10
30.352898
 20
87.836172
 30
0.0
 10
30.198754
 20
88.150898
 30
0.0
  0
SPLINE
  5
186
100
AcDbEntity
  8
logo
 62
7
100
AcDbSpline
 70
8
 71
3
 72
8
 73
4
 74
0
 40
0
 40
0
 40
0
 40
0
 40
1
 40
1
 40
1
 40
1
 10
30.198754
 20
88.150898
 30
0.0
 10
29.965159
 20
88.627847
 30
0.0
 10
29.936242
 20
89.103736
 30
0.0
 10
30.118510
 20
89.471455
 30
0.0
  0
SPLINE
  5
187
100
AcDbEntity
  8
logo
 62
7
100
AcDbSpline
 70
8
 71
3
 72
8
 73
4
 74
0
 40
0
 40
0
 40
0
 40
0
 40
1
 40
1
 40
1
 40
1
 10
30.118510
 20
89.471455
 30
0.0
 10
30.234362
 20
89.705183
 30
0.0
 10
30.342707
 20
89.824961
 30
0.0
 10
30.588656
 20
89.991215
 30
0.0
  0
SPLINE
  5
188
100
AcDbEntity
  8
logo
 62
7
100
AcDbSpline
 70
8
 71
3
 72
8
 73
4
 74
0
 40
0
 40
0
 40
0
 40
0
 40
1
 40
1
 40
1
 40
1
 10
30.588656
 20
89.991215
 30
0.0
 10
30.861387
 20
90.175571
 30
0.0
 10
33.330780
 20
91.485703
 30
0.0
 10
35.270067
 20
92.474929
 30
0.0
  0
SPLINE
  5
189
100
AcDbEntity
  8
logo
 62
7
100
AcDbSpline
 70
8
 71
3
 72
8
 73
4
 74
0
 40
0
 40
0
 40
0
 40
0
 40
1
 40
1
 40
1
 40
1
 10
35.270067
 20
92.474929
 30
0.0
 10
35.766409
 20
92.728110
 30
0.0
 10
36.189429
 20
92.948678
 30
0.0
 10
36.210110
 20
92.965075
 30
0.0
  0
SPLINE
  5
18a
100
AcDbEntity
  8
logo
 62
7
100
AcDbSpline
 70
8
 71
3
 72
8
 73
4
 74
0
 40
0
 40
0
 40
0
 40
0
 40
1
 40
1
 40
1
 40
1
 10
36.210110
 20
92.965075
 30
0.0
 10
36.259285
 20
93.004070
 30
0.0
 10
36.817148
 20
93.250264
 30
0.0
 10
37.544970
 20
93.554172
 30
0.0
  0
SPLINE
  5
18b
100
AcDbEntity
  8
logo
 62
7
100
AcDbSpline
 70
8
 71
3
 72
8
 73
4
 74
0
 40
0
 40
0
 40
0
 40
0
 40
1
 40
1
 40
1
 40
1
 10
37.544970
 20
93.554172
 30
0.0
 10
38.363579
 20
93.895991
 30
0.0
 10
39.516456
 20
94.423563
 30
0.0
 10
40.561675
 20
94.934659
 30
0.0
  0
SPLINE
  5
18c
100
AcDbEntity
  8
logo
 62
7
100
AcDbSpline
 70
8
 71
3
 72
8
 73
4
 74
0
 40
0
 40
0
 40
0
 40
0
 40
1
 40
1
 40
1
 40
1
 10
40.561675
 20
94.934659
 30
0.0
 10
41.052392
 20
95.174610
 30
0.0
 10
41.740669
 20
95.488489
 30
0.0
 10
42.091184
 20
95.632163
 30
0.0
  0
SPLINE
  5
18d
100
AcDbEntity
  8
logo
 62
7
100
AcDbSpline
 70
8
 71
3
 72
8
 73
4
 74
0
 40
0
 40
0
 40
0
 40
0
 40
1
 40
1
 40
1
 40
1
 10
42.091184
 20
95.632163
 30
0.0
 10
42.441698
 20
95.775839
 30
0.0
 10
42.901083
 20
95.980007
 30
0.0
 10
43.112038
 20
96.085869
 30
0.0
  0
SPLINE
  5
18e
100
AcDbEntity
  8
logo
 62
7
100
AcDbSpline
 70
8
 71
3
 72
8
 73
4
 74
0
 40
0
 40
0
 40
0
 40
0
 40
1
 40
1
 40
1
 40
1
 10
43.112038
 20
96.085869
 30
0.0
 10
43.476240
 20
96.268633
 30
0.0
 10
43.539839
 20
96.280151
 30
0.0
 10
43.567954
 20
96.168444
 30
0.0
  0
SPLINE
  5
18f
100
AcDbEntity
  8
logo
 62
7
100
AcDbSpline
 70
8
 71
3
 72
8
 73
4
 74
0
 40
0
 40
0
 40
0
 40
0
 40
1
 40
1
 40
1
 40
1
 10
43.567954
 20
96.168444
 30
0.0
 10
43.580936
 20
96.116854
 30
0.0
 10
43.136583
 20
95.821308
 30
0.0
 10
42.320385
 20
95.338663
 30
0.0
  0
SPLINE
  5
190
100
AcDbEntity
  8
logo
 62
7
100
AcDbSpline
 70
8
 71
3
 72
8
 73
4
 74
0
 40
0
 40
0
 40
0
 40
0
 40
1
 40
1
 40
1
 40
1
 10
42.320385
 20
95.338663
 30
0.0
 10
40.504852
 20
94.265081
 30
0.0
 10
39.158336
 20
93.480475
 30
0.0
 10
38.733022
 20
93.248333
 30
0.0
  0
SPLINE
  5
191
100
AcDbEntity
  8
logo
 62
7
100
AcDbSpline
 70
8
 71
3
 72
8
 73
4
 74
0
 40
0
 40
0
 40
0
 40
0
 40
1
 40
1
 40
1
 40
1
 10
38.733022
 20
93.248333
 30
0.0
 10
37.572992
 20
92.615173
 30
0.0
 10
35.468520
 20
91.357219
 30
0.0
 10
34.856448
 20
90.931100
 30
0.0
  0
SPLINE
  5
192
100
AcDbEntity
  8
logo
 62
7
100
AcDbSpline
 70
8
 71
3
 72
8
 73
4
 74
0
 40
0
 40
0
 40
0
 40
0
 40
1
 40
1
 40
1
 40
1
 10
34.856448
 20
90.931100
 30
0.0
 10
32.992994
 20
89.633778
 30
0.0
 10
32.436223
 20
89.175384
 30
0.0
 10
31.937621
 20
88.528009
 30
0.0
  0
SPLINE
  5
193
100
AcDbEntity
  8
logo
 62
7
100
AcDbSpline
 70
8
 71
3
 72
8
 73
4
 74
0
 40
0
 40
0
 40
0
 40
0
 40
1
 40
1
 40
1
 40
1
 10
31.937621
 20
88.528009
 30
0.0
 10
31.630030
 20
88.128636
 30
0.0
 10
31.401794
 20
87.552815
 30
0.0
 10
31.417065
 20
87.214685
 30
0.0
  0
SPLINE
  5
194
100
AcDbEntity
  8
logo
 62
7
100
AcDbSpline
 70
8
 71
3
 72
8
 73
4
 74
0
 40
0
 40
0
 40
0
 40
0
 40
1
 40
1
 40
1
 40
1
 10
31.417065
 20
87.214685
 30
0.0
 10
31.427169
 20
86.990640
 30
0.0
 10
31.423923
 20
86.985246
 30
0.0
 10
31.278314
 20
86.985246
 30
0.0
  0
SPLINE
  5
195
100
AcDbEntity
  8
logo
 62
7
100
AcDbSpline
 70
8
 71
3
 72
8
 73
4
 74
0
 40
0
 40
0
 40
0
 40
0
 40
1
 40
1
 40
1
 40
1
 10
31.278314
 20
86.985246
 30
0.0
 10
31.158220
 20
86.985246
 30
0.0
 10
31.108966
 20
87.017502
 30
0.0
 10
30.890763
 20
87.239057
 30
0.0
  0
LWPOLYLINE
  5
196
100
AcDbEntity
  8
logo
 62
7
100
AcDbPolyline
 90
2
 70
1
 10
45.777777
 20
75.545662
 30
0.0
 10
45.777768
 20
75.545659
 30
0.0
  0
SPLINE
  5
197
100
AcDbEntity
  8
logo
 62
7
100
AcDbSpline
 70
8
 71
3
 72
8
 73
4
 74
0
 40
0
 40
0
 40
0
 40
0
 40
1
 40
1
 40
1
 40
1
 10
31.326799
 20
87.280095
 30
0.0
 10
31.329622
 20
87.400565
 30
0.0
 10
31.360497
 20
87.599246
 30
0.0
 10
31.395681
 20
87.721609
 30
0.0
  0
SPLINE
  5
198
100
AcDbEntity
  8
logo
 62
7
100
AcDbSpline
 70
8
 71
3
 72
8
 73
4
 74
0
 40
0
 40
0
 40
0
 40
0
 40
1
 40
1
 40
1
 40
1
 10
31.395681
 20
87.721609
 30
0.0
 10
31.456229
 20
87.932181
 30
0.0
 10
31.668339
 20
88.411154
 30
0.0
 10
31.719001
 20
88.451713
 30
0.0
  0
SPLINE
  5
199
100
AcDbEntity
  8
logo
 62
7
100
AcDbSpline
 70
8
 71
3
 72
8
 73
4
 74
0
 40
0
 40
0
 40
0
 40
0
 40
1
 40
1
 40
1
 40
1
 10
31.719001
 20
88.451713
 30
0.0
 10
31.731926
 20
88.462042
 30
0.0
 10
31.806255
 20
88.555116
 30
0.0
 10
31.884194
 20
88.658522
 30
0.0
  0
SPLINE
  5
19a
100
AcDbEntity
  8
logo
 62
7
100
AcDbSpline
 70
8
 71
3
 72
8
 73
4
 74
0
 40
0
 40
0
 40
0
 40
0
 40
1
 40
1
 40
1
 40
1
 10
31.884194
 20
88.658522
 30
0.0
 10
32.070486
 20
88.905678
 30
0.0
 10
32.401767
 20
89.253035
 30
0.0
 10
32.554031
 20
89.360860
 30
0.0
  0
SPLINE
  5
19b
100
AcDbEntity
  8
logo
 62
7
100
AcDbSpline
 70
8
 71
3
 72
8
 73
4
 74
0
 40
0
 40
0
 40
0
 40
0
 40
1
 40
1
 40
1
 40
1
 10
32.554031
 20
89.360860
 30
0.0
 10
32.620867
 20
89.408189
 30
0.0
 10
32.731106
 20
89.502186
 30
0.0
 10
32.799009
 20
89.569742
 30
0.0
  0
SPLINE
  5
19c
100
AcDbEntity
  8
logo
 62
7
100
AcDbSpline
 70
8
 71
3
 72
8
 73
4
 74
0
 40
0
 40
0
 40
0
 40
0
 40
1
 40
1
 40
1
 40
1
 10
32.799009
 20
89.569742
 30
0.0
 10
32.866911
 20
89.637297
 30
0.0
 10
32.930699
 20
89.692567
 30
0.0
 10
32.940758
 20
89.692567
 30
0.0
  0
SPLINE
  5
19d
100
AcDbEntity
  8
logo
 62
7
100
AcDbSpline
 70
8
 71
3
 72
8
 73
4
 74
0
 40
0
 40
0
 40
0
 40
0
 40
1
 40
1
 40
1
 40
1
 10
32.940758
 20
89.692567
 30
0.0
 10
32.950833
 20
89.692567
 30
0.0
 10
33.163191
 20
89.849085
 30
0.0
 10
33.412698
 20
90.040384
 30
0.0
  0
SPLINE
  5
19e
100
AcDbEntity
  8
logo
 62
7
100
AcDbSpline
 70
8
 71
3
 72
8
 73
4
 74
0
 40
0
 40
0
 40
0
 40
0
 40
1
 40
1
 40
1
 40
1
 10
33.412698
 20
90.040384
 30
0.0
 10
33.662205
 20
90.231682
 30
0.0
 10
33.912062
 20
90.415446
 30
0.0
 10
33.967939
 20
90.448745
 30
0.0
  0
SPLINE
  5
19f
100
AcDbEntity
  8
logo
 62
7
100
AcDbSpline
 70
8
 71
3
 72
8
 73
4
 74
0
 40
0
 40
0
 40
0
 40
0
 40
1
 40
1
 40
1
 40
1
 10
33.967939
 20
90.448745
 30
0.0
 10
34.112519
 20
90.534913
 30
0.0
 10
34.840556
 20
91.062071
 30
0.0
 10
34.938606
 20
91.151586
 30
0.0
  0
SPLINE
  5
1a0
100
AcDbEntity
  8
logo
 62
7
100
AcDbSpline
 70
8
 71
3
 72
8
 73
4
 74
0
 40
0
 40
0
 40
0
 40
0
 40
1
 40
1
 40
1
 40
1
 10
34.938606
 20
91.151586
 30
0.0
 10
34.983793
 20
91.192841
 30
0.0
 10
35.029877
 20
91.217485
 30
0.0
 10
35.041013
 20
91.206348
 30
0.0
  0
SPLINE
  5
1a1
100
AcDbEntity
  8
logo
 62
7
100
AcDbSpline
 70
8
 71
3
 72
8
 73
4
 74
0
 40
0
 40
0
 40
0
 40
0
 40
1
 40
1
 40
1
 40
1
 10
35.041013
 20
91.206348
 30
0.0
 10
35.052161
 20
91.195200
 30
0.0
 10
35.150544
 20
91.245154
 30
0.0
 10
35.259668
 20
91.317326
 30
0.0
  0
SPLINE
  5
1a2
100
AcDbEntity
  8
logo
 62
7
100
AcDbSpline
 70
8
 71
3
 72
8
 73
4
 74
0
 40
0
 40
0
 40
0
 40
0
 40
1
 40
1
 40
1
 40
1
 10
35.259668
 20
91.317326
 30
0.0
 10
35.707670
 20
91.613632
 30
0.0
 10
36.805910
 20
92.282241
 30
0.0
 10
37.413365
 20
92.628503
 30
0.0
  0
SPLINE
  5
1a3
100
AcDbEntity
  8
logo
 62
7
100
AcDbSpline
 70
8
 71
3
 72
8
 73
4
 74
0
 40
0
 40
0
 40
0
 40
0
 40
1
 40
1
 40
1
 40
1
 10
37.413365
 20
92.628503
 30
0.0
 10
37.537449
 20
92.699236
 30
0.0
 10
37.667638
 20
92.774028
 30
0.0
 10
37.702673
 20
92.794709
 30
0.0
  0
SPLINE
  5
1a4
100
AcDbEntity
  8
logo
 62
7
100
AcDbSpline
 70
8
 71
3
 72
8
 73
4
 74
0
 40
0
 40
0
 40
0
 40
0
 40
1
 40
1
 40
1
 40
1
 10
37.702673
 20
92.794709
 30
0.0
 10
37.737709
 20
92.815396
 30
0.0
 10
37.983058
 20
92.952395
 30
0.0
 10
38.247899
 20
93.099165
 30
0.0
  0
SPLINE
  5
1a5
100
AcDbEntity
  8
logo
 62
7
100
AcDbSpline
 70
8
 71
3
 72
8
 73
4
 74
0
 40
0
 40
0
 40
0
 40
0
 40
1
 40
1
 40
1
 40
1
 10
38.247899
 20
93.099165
 30
0.0
 10
38.702121
 20
93.350887
 30
0.0
 10
39.612739
 20
93.874610
 30
0.0
 10
40.127013
 20
94.179892
 30
0.0
  0
SPLINE
  5
1a6
100
AcDbEntity
  8
logo
 62
7
100
AcDbSpline
 70
8
 71
3
 72
8
 73
4
 74
0
 40
0
 40
0
 40
0
 40
0
 40
1
 40
1
 40
1
 40
1
 10
40.127013
 20
94.179892
 30
0.0
 10
40.254578
 20
94.255618
 30
0.0
 10
40.375843
 20
94.317577
 30
0.0
 10
40.396490
 20
94.317577
 30
0.0
  0
SPLINE
  5
1a7
100
AcDbEntity
  8
logo
 62
7
100
AcDbSpline
 70
8
 71
3
 72
8
 73
4
 74
0
 40
0
 40
0
 40
0
 40
0
 40
1
 40
1
 40
1
 40
1
 10
40.396490
 20
94.317577
 30
0.0
 10
40.417149
 20
94.317577
 30
0.0
 10
40.439673
 20
94.332112
 30
0.0
 10
40.446568
 20
94.349895
 30
0.0
  0
SPLINE
  5
1a8
100
AcDbEntity
  8
logo
 62
7
100
AcDbSpline
 70
8
 71
3
 72
8
 73
4
 74
0
 40
0
 40
0
 40
0
 40
0
 40
1
 40
1
 40
1
 40
1
 10
40.446568
 20
94.349895
 30
0.0
 10
40.453454
 20
94.367675
 30
0.0
 10
40.577547
 20
94.449547
 30
0.0
 10
40.722313
 20
94.531840
 30
0.0
  0
SPLINE
  5
1a9
100
AcDbEntity
  8
logo
 62
7
100
AcDbSpline
 70
8
 71
3
 72
8
 73
4
 74
0
 40
0
 40
0
 40
0
 40
0
 40
1
 40
1
 40
1
 40
1
 10
40.722313
 20
94.531840
 30
0.0
 10
40.867079
 20
94.614136
 30
0.0
 10
41.262749
 20
94.844943
 30
0.0
 10
41.601576
 20
95.044745
 30
0.0
  0
SPLINE
  5
1aa
100
AcDbEntity
  8
logo
 62
7
100
AcDbSpline
 70
8
 71
3
 72
8
 73
4
 74
0
 40
0
 40
0
 40
0
 40
0
 40
1
 40
1
 40
1
 40
1
 10
41.601576
 20
95.044745
 30
0.0
 10
41.940404
 20
95.244550
 30
0.0
 10
42.229665
 20
95.408025
 30
0.0
 10
42.244377
 20
95.408025
 30
0.0
  0
SPLINE
  5
1ab
100
AcDbEntity
  8
logo
 62
7
100
AcDbSpline
 70
8
 71
3
 72
8
 73
4
 74
0
 40
0
 40
0
 40
0
 40
0
 40
1
 40
1
 40
1
 40
1
 10
42.244377
 20
95.408025
 30
0.0
 10
42.259081
 20
95.408025
 30
0.0
 10
42.301753
 20
95.441866
 30
0.0
 10
42.339187
 20
95.483228
 30
0.0
  0
SPLINE
  5
1ac
100
AcDbEntity
  8
logo
 62
7
100
AcDbSpline
 70
8
 71
3
 72
8
 73
4
 74
0
 40
0
 40
0
 40
0
 40
0
 40
1
 40
1
 40
1
 40
1
 10
42.339187
 20
95.483228
 30
0.0
 10
42.376618
 20
95.524591
 30
0.0
 10
42.422058
 20
95.558432
 30
0.0
 10
42.440169
 20
95.558432
 30
0.0
  0
SPLINE
  5
1ad
100
AcDbEntity
  8
logo
 62
7
100
AcDbSpline
 70
8
 71
3
 72
8
 73
4
 74
0
 40
0
 40
0
 40
0
 40
0
 40
1
 40
1
 40
1
 40
1
 10
42.440169
 20
95.558432
 30
0.0
 10
42.478429
 20
95.558432
 30
0.0
 10
42.997216
 20
95.863661
 30
0.0
 10
42.997216
 20
95.886171
 30
0.0
  0
SPLINE
  5
1ae
100
AcDbEntity
  8
logo
 62
7
100
AcDbSpline
 70
8
 71
3
 72
8
 73
4
 74
0
 40
0
 40
0
 40
0
 40
0
 40
1
 40
1
 40
1
 40
1
 10
42.997216
 20
95.886171
 30
0.0
 10
42.997216
 20
95.894497
 30
0.0
 10
42.984516
 20
95.893848
 30
0.0
 10
42.969022
 20
95.884760
 30
0.0
  0
SPLINE
  5
1af
100
AcDbEntity
  8
logo
 62
7
100
AcDbSpline
 70
8
 71
3
 72
8
 73
4
 74
0
 40
0
 40
0
 40
0
 40
0
 40
1
 40
1
 40
1
 40
1
 10
42.969022
 20
95.884760
 30
0.0
 10
42.907627
 20
95.848712
 30
0.0
 10
42.561874
 20
95.697791
 30
0.0
 10
42.435512
 20
95.651882
 30
0.0
  0
SPLINE
  5
1b0
100
AcDbEntity
  8
logo
 62
7
100
AcDbSpline
 70
8
 71
3
 72
8
 73
4
 74
0
 40
0
 40
0
 40
0
 40
0
 40
1
 40
1
 40
1
 40
1
 10
42.435512
 20
95.651882
 30
0.0
 10
42.361855
 20
95.625127
 30
0.0
 10
42.200068
 20
95.556434
 30
0.0
 10
42.075983
 20
95.499242
 30
0.0
  0
SPLINE
  5
1b1
100
AcDbEntity
  8
logo
 62
7
100
AcDbSpline
 70
8
 71
3
 72
8
 73
4
 74
0
 40
0
 40
0
 40
0
 40
0
 40
1
 40
1
 40
1
 40
1
 10
42.075983
 20
95.499242
 30
0.0
 10
41.951896
 20
95.442049
 30
0.0
 10
41.833450
 20
95.392937
 30
0.0
 10
41.812772
 20
95.390106
 30
0.0
  0
SPLINE
  5
1b2
100
AcDbEntity
  8
logo
 62
7
100
AcDbSpline
 70
8
 71
3
 72
8
 73
4
 74
0
 40
0
 40
0
 40
0
 40
0
 40
1
 40
1
 40
1
 40
1
 10
41.812772
 20
95.390106
 30
0.0
 10
41.741056
 20
95.380285
 30
0.0
 10
41.721018
 20
95.370859
 30
0.0
 10
39.895083
 20
94.486665
 30
0.0
  0
SPLINE
  5
1b3
100
AcDbEntity
  8
logo
 62
7
100
AcDbSpline
 70
8
 71
3
 72
8
 73
4
 74
0
 40
0
 40
0
 40
0
 40
0
 40
1
 40
1
 40
1
 40
1
 10
39.895083
 20
94.486665
 30
0.0
 10
39.021743
 20
94.063761
 30
0.0
 10
38.146984
 20
93.675465
 30
0.0
 10
37.187762
 20
93.284923
 30
0.0
  0
SPLINE
  5
1b4
100
AcDbEntity
  8
logo
 62
7
100
AcDbSpline
 70
8
 71
3
 72
8
 73
4
 74
0
 40
0
 40
0
 40
0
 40
0
 40
1
 40
1
 40
1
 40
1
 10
37.187762
 20
93.284923
 30
0.0
 10
36.648771
 20
93.065473
 30
0.0
 10
36.221808
 20
92.851602
 30
0.0
 10
33.935216
 20
91.655680
 30
0.0
  0
SPLINE
  5
1b5
100
AcDbEntity
  8
logo
 62
7
100
AcDbSpline
 70
8
 71
3
 72
8
 73
4
 74
0
 40
0
 40
0
 40
0
 40
0
 40
1
 40
1
 40
1
 40
1
 10
33.935216
 20
91.655680
 30
0.0
 10
33.676703
 20
91.520473
 30
0.0
 10
33.363670
 20
91.360044
 30
0.0
 10
33.239586
 20
91.299168
 30
0.0
  0
SPLINE
  5
1b6
100
AcDbEntity
  8
logo
 62
7
100
AcDbSpline
 70
8
 71
3
 72
8
 73
4
 74
0
 40
0
 40
0
 40
0
 40
0
 40
1
 40
1
 40
1
 40
1
 10
33.239586
 20
91.299168
 30
0.0
 10
33.115498
 20
91.238293
 30
0.0
 10
33.005514
 20
91.175363
 30
0.0
 10
32.995173
 20
91.159324
 30
0.0
  0
SPLINE
  5
1b7
100
AcDbEntity
  8
logo
 62
7
100
AcDbSpline
 70
8
 71
3
 72
8
 73
4
 74
0
 40
0
 40
0
 40
0
 40
0
 40
1
 40
1
 40
1
 40
1
 10
32.995173
 20
91.159324
 30
0.0
 10
32.984844
 20
91.143294
 30
0.0
 10
32.950991
 20
91.123979
 30
0.0
 10
32.919969
 20
91.116415
 30
0.0
  0
SPLINE
  5
1b8
100
AcDbEntity
  8
logo
 62
7
100
AcDbSpline
 70
8
 71
3
 72
8
 73
4
 74
0
 40
0
 40
0
 40
0
 40
0
 40
1
 40
1
 40
1
 40
1
 10
32.919969
 20
91.116415
 30
0.0
 10
32.780786
 20
91.082484
 30
0.0
 10
31.724196
 20
90.500553
 30
0.0
 10
31.743898
 20
90.468676
 30
0.0
  0
SPLINE
  5
1b9
100
AcDbEntity
  8
logo
 62
7
100
AcDbSpline
 70
8
 71
3
 72
8
 73
4
 74
0
 40
0
 40
0
 40
0
 40
0
 40
1
 40
1
 40
1
 40
1
 10
31.743898
 20
90.468676
 30
0.0
 10
31.756006
 20
90.449061
 30
0.0
 10
31.748442
 20
90.443840
 30
0.0
 10
31.727050
 20
90.457048
 30
0.0
  0
SPLINE
  5
1ba
100
AcDbEntity
  8
logo
 62
7
100
AcDbSpline
 70
8
 71
3
 72
8
 73
4
 74
0
 40
0
 40
0
 40
0
 40
0
 40
1
 40
1
 40
1
 40
1
 10
31.727050
 20
90.457048
 30
0.0
 10
31.705657
 20
90.470256
 30
0.0
 10
31.605751
 20
90.436418
 30
0.0
 10
31.505028
 20
90.381833
 30
0.0
  0
SPLINE
  5
1bb
100
AcDbEntity
  8
logo
 62
7
100
AcDbSpline
 70
8
 71
3
 72
8
 73
4
 74
0
 40
0
 40
0
 40
0
 40
0
 40
1
 40
1
 40
1
 40
1
 10
31.505028
 20
90.381833
 30
0.0
 10
31.404309
 20
90.327243
 30
0.0
 10
31.220040
 20
90.228649
 30
0.0
 10
31.095546
 20
90.162733
 30
0.0
  0
SPLINE
  5
1bc
100
AcDbEntity
  8
logo
 62
7
100
AcDbSpline
 70
8
 71
3
 72
8
 73
4
 74
0
 40
0
 40
0
 40
0
 40
0
 40
1
 40
1
 40
1
 40
1
 10
31.095546
 20
90.162733
 30
0.0
 10
30.736388
 20
89.972566
 30
0.0
 10
30.582148
 20
89.863529
 30
0.0
 10
30.396019
 20
89.668215
 30
0.0
  0
SPLINE
  5
1bd
100
AcDbEntity
  8
logo
 62
7
100
AcDbSpline
 70
8
 71
3
 72
8
 73
4
 74
0
 40
0
 40
0
 40
0
 40
0
 40
1
 40
1
 40
1
 40
1
 10
30.396019
 20
89.668215
 30
0.0
 10
29.973304
 20
89.224632
 30
0.0
 10
30.000465
 20
88.583606
 30
0.0
 10
30.470673
 20
87.906516
 30
0.0
  0
SPLINE
  5
1be
100
AcDbEntity
  8
logo
 62
7
100
AcDbSpline
 70
8
 71
3
 72
8
 73
4
 74
0
 40
0
 40
0
 40
0
 40
0
 40
1
 40
1
 40
1
 40
1
 10
30.470673
 20
87.906516
 30
0.0
 10
30.675786
 20
87.611153
 30
0.0
 10
31.073324
 20
87.184797
 30
0.0
 10
31.203451
 20
87.120614
 30
0.0
  0
SPLINE
  5
1bf
100
AcDbEntity
  8
logo
 62
7
100
AcDbSpline
 70
8
 71
3
 72
8
 73
4
 74
0
 40
0
 40
0
 40
0
 40
0
 40
1
 40
1
 40
1
 40
1
 10
31.203451
 20
87.120614
 30
0.0
 10
31.268599
 20
87.088480
 30
0.0
 10
31.321900
 20
87.061943
 30
0.0
 10
31.321900
 20
87.061638
 30
0.0
  0
SPLINE
  5
1c0
100
AcDbEntity
  8
logo
 62
7
100
AcDbSpline
 70
8
 71
3
 72
8
 73
4
 74
0
 40
0
 40
0
 40
0
 40
0
 40
1
 40
1
 40
1
 40
1
 10
31.321900
 20
87.061638
 30
0.0
 10
31.321900
 20
87.061356
 30
0.0
 10
31.324158
 20
87.159654
 30
0.0
 10
31.326811
 20
87.280123
 30
0.0
  0
LWPOLYLINE
  5
1c1
100
AcDbEntity
  8
logo
 62
7
100
AcDbPolyline
 90
2
 70
1
 10
30.890763
 20
87.239057
 30
0.0
 10
30.890763
 20
87.239057
 30
0.0
  0
LWPOLYLINE
  5
1c2
100
AcDbEntity
  8
logo
 62
7
100
AcDbPolyline
 90
2
 70
1
 10
31.326811
 20
87.280123
 30
0.0
 10
31.326799
 20
87.280095
 30
0.0
  0
ENDSEC
  0
SECTION
  2
OBJECTS
  0
DICTIONARY
  5
C
330
0
100
AcDbDictionary
  3
ACAD_GROUP
350
D
  3
ACAD_MLINESTYLE
350
17
  0
DICTIONARY
  5
D
330
C
100
AcDbDictionary
  0
DICTIONARY
  5
1A
330
C
100
AcDbDictionary
  0
DICTIONARY
  5
17
330
C
100
AcDbDictionary
  3
STANDARD
350
18
  0
DICTIONARY
  5
19
330
C
100
AcDbDictionary
  0
ENDSEC
  0
EOF
